<svg width="141" height="44" viewBox="0 0 141 44" fill="none" xmlns="http://www.w3.org/2000/svg">
<g clip-path="url(#clip0_2016_8108)">
<path d="M36.4212 11.701L19.2584 2.02602C18.8599 1.80724 18.3617 1.80724 17.9631 2.02602L0.775512 11.7253C0.401867 11.9684 0.152771 12.3817 0.152771 12.8192C0.152771 13.2811 0.401867 13.6943 0.800421 13.9131L17.9631 23.5638C18.1624 23.6853 18.3866 23.7339 18.6108 23.7339C18.835 23.7339 19.0592 23.6853 19.2584 23.5638L36.4462 13.8888C36.8446 13.67 37.0937 13.2568 37.0937 12.7949C37.0689 12.3573 36.8198 11.9441 36.4212 11.701ZM18.6108 21.0356L4.01377 12.8192L18.6108 4.57847L33.2079 12.7949L18.6108 21.0356Z" fill="#191A4B"/>
<path d="M35.7961 17.3893C35.0737 17.3893 34.5008 17.9484 34.5008 18.6533V31.4642L18.6085 40.4099L2.71609 31.4886V18.6777C2.71609 17.9726 2.14317 17.4136 1.42079 17.4136C0.698409 17.4136 0.125488 17.9726 0.125488 18.6777V32.2178C0.125488 32.6797 0.374584 33.0929 0.773139 33.3116L17.9359 42.9624C18.1351 43.0839 18.3594 43.1325 18.5835 43.1325C18.8078 43.1325 19.0319 43.0839 19.2312 42.9624L36.4188 33.2874C36.8174 33.0685 37.0665 32.6553 37.0665 32.1935V18.6533C37.0665 17.9484 36.4936 17.3893 35.7961 17.3893Z" fill="#191A4B"/>
<path d="M44.8631 17.7296C44.8631 16.976 45.4857 16.3683 46.258 16.3683H50.2684C51.0407 16.3683 51.6634 16.976 51.6634 17.7296V28.9604C51.6634 29.7139 51.0407 30.3216 50.2684 30.3216H46.258C45.4857 30.3216 44.8631 29.7139 44.8631 28.9604V17.7296ZM50.2934 13.4026H46.2829C43.8417 13.4026 41.8489 15.3473 41.8489 17.7296V28.9604C41.8489 31.3426 43.8417 33.2873 46.2829 33.2873H50.2934C52.7344 33.2873 54.7272 31.3426 54.7272 28.9604V17.7296C54.7272 15.3473 52.7344 13.4026 50.2934 13.4026Z" fill="#191A4B"/>
<path d="M89.6755 22.3483H84.7433C83.8964 22.3483 83.2239 23.0046 83.2239 23.8312C83.2239 24.6577 83.8964 25.314 84.7433 25.314H88.156V28.9604C88.156 29.7139 87.5332 30.3216 86.7611 30.3216H82.7507C81.9784 30.3216 81.3556 29.7139 81.3556 28.9604V17.7296C81.3556 16.976 81.9784 16.3683 82.7507 16.3683H86.7611C87.5332 16.3683 88.156 16.976 88.156 17.7296C88.156 18.5561 88.8285 19.2124 89.6755 19.2124C90.5224 19.2124 91.1949 18.5561 91.1949 17.7296C91.1949 15.3473 89.2021 13.4026 86.7611 13.4026H82.7507C80.3095 13.4026 78.3167 15.3473 78.3167 17.7296V28.9604C78.3167 31.3426 80.3095 33.2873 82.7507 33.2873H86.7611C89.2021 33.2873 91.1949 31.3426 91.1949 28.9604V23.8312C91.1949 23.4422 91.0456 23.0533 90.7465 22.7859C90.4476 22.5184 90.074 22.3483 89.6755 22.3483Z" fill="#191A4B"/>
<path d="M74.2315 13.4026C73.3846 13.4026 72.7121 14.0589 72.7121 14.8855V31.8288C72.7121 32.6554 73.3846 33.3117 74.2315 33.3117C75.0785 33.3117 75.7511 32.6554 75.7511 31.8288V14.8855C75.7511 14.0589 75.0785 13.4026 74.2315 13.4026Z" fill="#191A4B"/>
<path d="M95.2552 13.427C94.4083 13.427 93.7358 14.0833 93.7358 14.9098V31.8531C93.7358 32.6797 94.4083 33.3361 95.2552 33.3361C96.1021 33.3361 96.7748 32.6797 96.7748 31.8531V14.8855C96.7748 14.0833 96.0773 13.427 95.2552 13.427Z" fill="#191A4B"/>
<path d="M110.699 13.427C109.852 13.427 109.18 14.0833 109.18 14.9098V27.1615L102.155 14.1806C101.881 13.7187 101.383 13.427 100.835 13.427C100.711 13.427 99.3156 13.427 99.3156 14.9098V31.8531C99.3156 32.6797 99.9882 33.3361 100.835 33.3361C101.682 33.3361 102.355 32.6797 102.355 31.8531V20.1849L109.379 32.5824C109.852 33.409 110.724 33.3604 111.098 33.2875C111.77 33.1173 112.219 32.5338 112.219 31.8531V14.8855C112.219 14.0833 111.521 13.427 110.699 13.427Z" fill="#191A4B"/>
<path d="M139.345 30.346H133.143V14.8855C133.143 14.0589 132.47 13.4026 131.623 13.4026C130.776 13.4026 130.104 14.0589 130.104 14.8855V31.8288C130.104 32.6554 130.776 33.3117 131.623 33.3117H139.32C140.167 33.3117 140.84 32.6554 140.84 31.8288C140.865 31.0267 140.167 30.346 139.345 30.346Z" fill="#191A4B"/>
<path d="M67.1325 20.4765C67.1325 21.2301 66.5097 22.3726 65.7374 22.3726H60.3072V17.7296C60.3072 16.976 60.9299 16.3683 61.702 16.3683H65.7126C66.4847 16.3683 67.1075 16.976 67.1075 17.7296L67.1325 20.4765ZM65.7374 13.4026H61.727C59.2858 13.4026 57.2932 15.3473 57.2932 17.7296V31.8045C57.2932 32.631 57.9657 33.2873 58.8126 33.2873C59.6595 33.2873 60.332 32.631 60.332 31.8045V25.3383H63.4209L67.3316 32.6066C67.6307 33.1901 68.5273 33.6763 69.3992 33.1901C70.1215 32.8011 70.3956 31.9017 69.997 31.1724L66.8086 25.1924C68.7515 24.7306 70.1963 22.4942 70.1963 20.4523V17.7296C70.1714 15.3473 68.1786 13.4026 65.7374 13.4026Z" fill="#191A4B"/>
<path d="M124.549 22.3726H117.774V17.7296C117.774 16.9761 118.397 16.3684 119.169 16.3684H123.154C123.927 16.3684 124.549 16.9761 124.549 17.7296V22.3726ZM123.179 13.427H119.194C116.753 13.427 114.76 15.3717 114.76 17.754V31.8289C114.76 32.6554 115.432 33.3117 116.279 33.3117C117.126 33.3117 117.799 32.6554 117.799 31.8289V25.3383H124.574V31.8045C124.574 32.6311 125.247 33.2875 126.094 33.2875C126.941 33.2875 127.613 32.6554 127.613 31.7803V18.0943C127.588 15.2745 125.62 13.427 123.179 13.427Z" fill="#191A4B"/>
<path d="M60.3325 10.0967C60.3325 10.4856 60.6562 10.8017 61.0548 10.8017C61.4534 10.8017 61.7771 10.51 61.7771 10.0724V7.05807C61.7771 5.72109 60.8306 4.82166 59.6847 4.82166H57.7917C56.6457 4.82166 55.6993 5.7454 55.6993 6.86361V10.0481C55.6993 10.437 56.023 10.753 56.4216 10.753C56.8201 10.753 57.1439 10.437 57.1439 10.0481V6.88791C57.1439 6.52328 57.4428 6.25588 57.7917 6.25588H59.6847C60.0584 6.25588 60.3325 6.54759 60.3325 6.88791V10.0967Z" fill="#191A4B"/>
<path d="M53.7062 8.20058C54.1048 8.20058 53.9553 7.88455 53.9553 7.49562C53.9553 7.10667 54.1296 6.79065 53.6812 6.79065H51.0906C49.7206 6.79065 48.799 7.71439 48.8239 8.8326V8.73537C48.8239 9.85358 49.7705 10.7773 50.9163 10.7773H52.1368C52.5355 10.7773 52.8593 10.4613 52.8593 10.0724C52.8593 9.68342 52.5355 9.36741 52.1368 9.36741H50.9163C50.5427 9.36741 50.2687 9.0757 50.2687 8.73537V8.8326C50.2687 8.46798 50.5676 8.20058 50.9163 8.20058H53.7062Z" fill="#191A4B"/>
<path d="M50.7422 9.39172C50.3438 9.39172 50.0199 9.70773 50.0199 10.0967C50.0199 10.4856 50.3188 10.8016 50.7672 10.8016H52.5607C53.9308 10.8016 54.8524 9.87789 54.8524 8.75968V6.91219C54.8524 5.79398 53.9058 4.87024 52.76 4.87024H49.7958C49.3972 4.87024 49.0733 5.18626 49.0733 5.5752C49.0733 5.96414 49.3972 6.28017 49.7958 6.28017H52.7101C53.0837 6.28017 53.3578 6.57186 53.3578 6.91219V8.75968C53.3578 9.12432 53.0589 9.39172 52.7101 9.39172H50.7422Z" fill="#191A4B"/>
<path d="M67.6806 6.25575C68.0791 6.25575 68.4029 5.93973 68.4029 5.55078C68.4029 5.16185 68.104 4.84583 67.6556 4.84583H64.8907C63.5207 4.84583 62.599 5.76957 62.6238 6.88778V8.73526C62.6238 9.85348 63.5704 10.7772 64.7164 10.7772H67.6806C68.0791 10.7772 68.4029 10.4612 68.4029 10.0723C68.4029 9.68331 68.0791 9.3673 67.6806 9.3673H64.7164C64.3427 9.3673 64.0687 9.07559 64.0687 8.73526V6.88778C64.0687 6.52314 64.3675 6.25575 64.7164 6.25575H67.6806Z" fill="#191A4B"/>
<path d="M73.9576 8.73526C73.9576 9.0999 73.6587 9.3673 73.3099 9.3673H71.6909H71.3918C71.0182 9.3673 70.7443 9.07559 70.7443 8.73526V6.88778C70.7443 6.52314 71.0431 6.25575 71.3918 6.25575H73.011H73.285C73.6587 6.25575 73.9326 6.54745 73.9326 6.88778L73.9576 8.73526ZM73.3099 4.84583H71.6909H71.5911C70.2211 4.84583 69.2994 5.76957 69.2994 6.88778V8.73526C69.2994 9.85348 70.2461 10.7772 71.3918 10.7772H73.011H73.1107C74.4806 10.7772 75.4024 9.85348 75.4024 8.73526V6.88778C75.4024 5.76957 74.4558 4.84583 73.3099 4.84583Z" fill="#191A4B"/>
<path d="M46.408 5.86691C46.408 5.86691 47.1303 5.79398 47.1303 4.62714V3.84926C47.1303 2.77966 46.2336 1.90454 45.1376 1.90454H43.4935C41.9491 1.90454 41.8246 2.3178 41.8246 3.84926V4.72438V7.88455V8.85691C41.8246 10.3641 42.1734 10.8016 43.8174 10.8016H46.1589C47.2548 10.8016 48.1517 9.92651 48.1517 8.85691V7.64146C48.1517 6.03707 46.408 5.86691 46.408 5.86691ZM43.5185 3.21723H45.1625C45.5113 3.21723 45.7852 3.48462 45.7852 3.82495V4.60284C45.7852 4.94317 45.5113 5.45365 45.1625 5.45365H44.739H44.4651H43.1697V3.82495C43.1946 3.33878 43.0203 3.21723 43.5185 3.21723ZM46.7816 8.85691C46.7816 9.19724 46.5077 9.46463 46.1589 9.46463H43.8174C43.2942 9.46463 43.1946 9.3431 43.1946 8.85691V7.88455V6.74203H45.0629H45.2372H46.134C46.4827 6.74203 46.7568 7.25252 46.7568 7.59284L46.7816 8.85691Z" fill="#191A4B"/>
</g>
<defs>
<clipPath id="clip0_2016_8108">
<rect width="141" height="43" fill="white" transform="translate(0 0.5)"/>
</clipPath>
</defs>
</svg>
