<svg width="171" height="34" viewBox="0 0 171 34" fill="none" xmlns="http://www.w3.org/2000/svg">
<path d="M14.1368 10.455C11.646 10.455 9.65334 12.6693 9.65334 15.4372V20.4195H14.1368C16.6277 20.4195 18.6203 18.205 18.6203 15.4372C18.6203 12.6693 16.5653 10.455 14.1368 10.455ZM14.1368 17.8591H11.9574V15.4372C11.9574 14.1224 12.9537 13.0153 14.1368 13.0153C15.32 13.0153 16.3163 14.1224 16.3163 15.4372C16.3163 16.752 15.32 17.8591 14.1368 17.8591Z" fill="#191A4B"/>
<path fill-rule="evenodd" clip-rule="evenodd" d="M14.1376 5.81885C9.34276 5.81885 5.41969 10.1091 5.41969 15.4374V33.5671H7.72371V21.942V15.4374C7.72371 11.5623 10.5882 8.37917 14.0753 8.37917C17.5625 8.37917 20.427 11.5623 20.427 15.4374C20.427 19.3124 17.5625 22.4955 14.0753 22.4955H9.59183V25.0558H14.1376C18.9325 25.0558 22.7932 20.7656 22.7932 15.4374C22.7932 10.1091 18.8701 5.81885 14.1376 5.81885Z" fill="#191A4B"/>
<path fill-rule="evenodd" clip-rule="evenodd" d="M14.1374 0.974976C6.97628 0.974976 1.12283 7.47959 1.12283 15.4373V15.5065V30.9376C1.12283 31.2837 1.30964 33.6363 3.55138 33.6363V23.8103V15.5065V15.3681C3.55138 8.93273 8.28396 3.6737 14.1374 3.6737C19.9285 3.6737 24.6611 8.93273 24.6611 15.3681C24.6611 21.8036 19.9285 27.0625 14.1374 27.0625H9.65391V29.7612H14.1374C21.2985 29.7612 27.152 23.2567 27.152 15.2989C27.0897 7.47959 21.2985 0.974976 14.1374 0.974976Z" fill="#191A4B"/>
<path fill-rule="evenodd" clip-rule="evenodd" d="M22.2326 33.5673H22.295L22.2326 33.4288C20.9872 29.7615 17.8115 27.1318 14.0752 27.1318H9.59171V27.2703V29.6922V29.8305H14.1375C16.566 29.8305 18.6833 31.353 19.7419 33.5673H22.2326Z" fill="#191A4B"/>
<path fill-rule="evenodd" clip-rule="evenodd" d="M24.2247 33.5669H26.7778C25.3456 27.2699 20.2394 22.4952 14.1368 22.4952H9.65334V25.1939H14.1368C18.8694 25.2632 22.9169 28.7231 24.2247 33.5669Z" fill="#191A4B"/>
<path d="M151.79 11.9734H154.829L161.632 28.2176H159.316C159.027 28.2176 158.882 28.2175 158.592 28.0569C158.303 28.0569 158.158 27.896 158.013 27.7351C157.869 27.5742 157.724 27.4135 157.434 27.2527C157.29 27.0918 157.145 26.9309 157 26.6093L156.277 24.8401H150.198L149.474 26.6093C149.329 26.77 149.329 26.9309 149.04 27.2527C148.895 27.4135 148.75 27.5742 148.461 27.7351C148.316 27.896 148.027 27.896 147.882 28.0569C147.593 28.0569 147.448 28.2176 147.158 28.2176H144.987L151.79 11.9734ZM151.645 21.6235H154.974L153.671 18.2459C153.671 18.085 153.527 17.9243 153.527 17.7634C153.527 17.6026 153.527 17.4417 153.382 17.4417C153.382 17.2809 153.382 17.2809 153.382 17.1201C153.382 17.2809 153.382 17.2809 153.382 17.4417C153.382 17.6026 153.382 17.6026 153.237 17.7634C153.237 17.9243 153.092 18.085 153.092 18.2459L151.645 21.6235Z" fill="#191A4B"/>
<path d="M161.342 28.2176V11.9734H164.815V24.6792H170.894V28.2176H161.342Z" fill="#191A4B"/>
<path d="M109.672 28.2176H106.199V11.9734H112.277C112.856 11.9734 113.435 12.1342 113.87 12.1342C114.304 12.295 114.738 12.4559 115.172 12.7776C115.606 13.0992 115.896 13.4209 116.185 13.7426C116.475 14.0642 116.764 14.5467 116.909 14.8684C117.054 15.3509 117.198 15.6726 117.343 16.1551C117.488 16.6376 117.488 17.1201 117.488 17.4417C117.488 17.9243 117.488 18.2459 117.343 18.7283C117.198 19.211 117.054 19.5325 116.909 20.0151C116.764 20.4976 116.475 20.8193 116.185 21.1409C115.896 21.4626 115.462 21.7842 115.027 22.2668L119.08 28.0569H116.185C116.185 28.0569 116.041 28.0569 115.896 28.0569C115.751 28.0569 115.606 28.0569 115.317 27.896C115.172 27.7351 114.883 27.7351 114.738 27.5742C114.593 27.4135 114.304 27.2527 114.159 26.9309L111.554 23.2317H109.672V28.2176ZM112.422 19.5325C112.567 19.5325 112.856 19.5325 113.001 19.3718C113.146 19.211 113.435 19.0501 113.58 18.8892C113.725 18.7283 113.87 18.5676 114.014 18.2459C114.159 18.085 114.159 17.7634 114.159 17.6026C114.159 17.4418 114.159 17.1201 114.014 16.9592C113.87 16.7984 113.725 16.4767 113.58 16.3159C113.435 16.1551 113.291 15.9942 113.001 15.8334C112.856 15.6726 112.567 15.6726 112.422 15.6726H109.672V19.5325H112.422Z" fill="#191A4B"/>
<path d="M122.553 21.6235C122.553 22.106 122.698 22.4275 122.843 22.7493C122.988 23.0708 123.277 23.3926 123.422 23.7143C123.711 24.0359 124.001 24.1968 124.29 24.3577C124.58 24.5185 125.014 24.5185 125.448 24.5185C125.882 24.5185 126.172 24.5185 126.606 24.3577C126.895 24.1968 127.33 24.0359 127.474 23.7143C127.764 23.3926 127.908 23.0708 128.053 22.7493C128.198 22.4275 128.343 21.9451 128.343 21.6235V11.9734H131.961V21.6235C131.961 22.5884 131.816 23.3926 131.382 24.1968C131.093 25.001 130.514 25.6443 129.935 26.2876C129.356 26.9309 128.632 27.4135 127.908 27.7351C127.185 28.0569 126.316 28.2176 125.448 28.2176C124.869 28.2176 124.29 28.0569 123.711 28.0569C123.132 27.896 122.698 27.7351 122.119 27.4135C121.685 27.0918 121.251 26.77 120.817 26.2876C120.382 25.8052 120.093 25.4834 119.803 25.001C119.514 24.5185 119.369 24.0359 119.08 23.3926C118.935 22.7493 118.79 22.2668 118.79 21.6235V11.9734H122.264V21.6235H122.553Z" fill="#191A4B"/>
<path d="M137.171 28.2176H133.697V11.9734H139.776C140.355 11.9734 140.934 12.1342 141.368 12.1342C141.802 12.295 142.236 12.4559 142.671 12.7776C143.105 13.0992 143.394 13.4209 143.684 13.7426C143.973 14.0642 144.263 14.5467 144.407 14.8684C144.552 15.3509 144.697 15.6726 144.842 16.1551C144.986 16.6376 144.986 17.1201 144.986 17.4417C144.986 17.9243 144.986 18.2459 144.842 18.7283C144.697 19.211 144.552 19.5325 144.407 20.0151C144.263 20.4976 143.973 20.8193 143.684 21.1409C143.394 21.4626 142.96 21.7842 142.526 22.2668L146.578 28.0569H143.684C143.684 28.0569 143.539 28.0569 143.394 28.0569C143.249 28.0569 143.105 28.0569 142.815 27.896C142.671 27.7351 142.381 27.7351 142.236 27.5742C142.092 27.4135 141.802 27.2527 141.658 26.9309L139.052 23.2317H137.171V28.2176ZM139.776 19.5325C139.921 19.5325 140.21 19.5325 140.355 19.3718C140.5 19.211 140.789 19.0501 140.934 18.8892C141.079 18.7283 141.223 18.5676 141.368 18.2459C141.513 18.085 141.513 17.7634 141.513 17.6026C141.513 17.4418 141.513 17.1201 141.368 16.9592C141.223 16.7984 141.079 16.4767 140.934 16.3159C140.789 16.1551 140.644 15.9942 140.355 15.8334C140.21 15.6726 139.921 15.6726 139.776 15.6726H137.026V19.5325H139.776Z" fill="#191A4B"/>
<path d="M39.1867 20.1758C39.1867 20.8191 39.3315 21.4625 39.4762 21.9451C39.621 22.5884 39.7656 23.0708 40.0552 23.5533C40.3446 24.0359 40.6342 24.5183 41.0683 25.0008C41.5025 25.4834 41.7919 25.805 42.3709 26.1267C42.805 26.4483 43.384 26.6092 43.8182 26.77C44.2524 26.9309 44.8313 27.0918 45.4103 27.0918C46.134 27.0918 46.713 26.9309 47.2918 26.77C47.8707 26.6092 48.4497 26.2876 48.8839 25.9659C49.0286 25.9659 49.0286 25.805 49.1734 25.805C49.318 25.805 49.4628 25.805 49.4628 25.805C49.6076 25.805 49.897 25.805 50.0418 25.9659C50.1865 25.9659 50.3312 26.1267 50.4759 26.2876L50.6207 26.4485C49.897 27.0918 49.1734 27.7351 48.3049 28.2176C47.4365 28.7 46.4234 28.8609 45.4103 28.8609C44.3971 28.8609 43.384 28.7 42.5156 28.2176C41.6473 27.7351 40.7788 27.2525 40.1998 26.4485C39.4762 25.6443 39.0421 24.8401 38.6079 23.875C38.1736 22.91 38.0289 21.7842 38.0289 20.6583C38.0289 19.5325 38.1736 18.4068 38.6079 17.4417C39.0421 16.4767 39.4762 15.5117 40.1998 14.8683C40.9236 14.0642 41.6473 13.5816 42.5156 13.0991C43.384 12.6166 44.3971 12.4558 45.4103 12.4558C46.4234 12.4558 47.4365 12.6166 48.3049 13.0991C49.1734 13.5816 49.897 14.0642 50.6207 14.8683L50.4759 15.0292C50.1865 14.3858 50.1865 14.5466 49.897 14.5466C49.7524 14.5466 49.6076 14.7075 49.4628 14.7075C49.1734 14.7075 49.0286 14.7075 48.8839 14.5466C48.4497 14.225 47.8707 13.9033 47.2918 13.5817C46.713 13.4208 46.134 13.26 45.4103 13.26C44.8313 13.26 44.2524 13.4208 43.8182 13.5817C43.2392 13.7425 42.805 13.9033 42.3709 14.225C41.9367 14.5467 41.5025 14.8683 41.0683 15.3508C40.6342 15.8333 40.3446 16.155 40.0552 16.7983C39.7656 17.2808 39.621 17.9241 39.4762 18.4068C39.1867 18.8892 39.1867 19.5325 39.1867 20.1758Z" fill="#191A4B"/>
<path d="M57.279 11.9734H58.2921C58.8711 13.4209 59.3052 14.7076 59.8842 15.9942C60.4632 17.2809 60.8973 18.7283 61.4763 20.0151C62.0552 21.3018 62.4894 22.7493 63.0684 24.0359C63.6473 25.3225 64.0815 26.77 64.6605 28.0569H64.0815C63.792 28.0569 63.6473 28.0569 63.3578 27.896C63.2132 27.7351 63.0684 27.5742 62.9236 27.2527L61.7657 24.1968H53.8054L52.6475 27.4135C52.5029 27.7351 52.3581 27.896 52.2133 28.0569C52.0687 28.2175 51.7791 28.2176 51.4897 28.2176H50.9108L57.279 11.9734ZM54.3844 22.9101H61.3315L58.0027 14.5467C58.0027 14.3859 58.0027 14.3859 57.8579 14.2251C57.8579 14.0642 57.8579 14.0642 57.8579 13.9034C57.8579 13.7426 57.8579 13.7426 57.8579 13.5817C57.8579 13.7426 57.8579 13.7426 57.8579 13.9034C57.8579 14.0642 57.8579 14.0642 57.8579 14.2251C57.8579 14.3859 57.8579 14.3859 57.7132 14.5467L54.3844 22.9101Z" fill="#191A4B"/>
<path d="M77.6861 28.2176H76.3836L67.5548 14.2251C67.5548 14.2251 67.5548 14.0643 67.41 14.0643V13.9035V13.7426V28.2176H66.1075V12.1343H66.9758C67.2654 12.1343 67.41 12.1343 67.5548 12.2951C67.6995 12.2951 67.8442 12.456 67.9889 12.6168L76.094 25.3226C76.094 25.4835 76.2388 25.4835 76.2388 25.6444C76.2388 25.8052 76.2388 25.8052 76.3836 25.9659C76.3836 26.1268 76.3836 26.1268 76.3836 26.2877V12.2951H77.6861V28.2176Z" fill="#191A4B"/>
<path d="M85.5011 11.9734H86.5143C87.0932 13.4209 87.5274 14.7076 88.1064 15.9942C88.6853 17.2809 89.1195 18.7283 89.6985 20.0151C90.2772 21.3018 90.7116 22.7493 91.2904 24.0359C91.8693 25.3225 92.3035 26.77 92.8825 28.0569H92.3035C92.0141 28.0569 91.8693 28.0569 91.5799 27.896C91.4352 27.7351 91.2904 27.5742 91.1458 27.2527L89.9878 24.3577H82.0276L80.8696 27.4135C80.7249 27.7351 80.5801 27.896 80.4355 28.0569C80.2907 28.2175 80.0013 28.2176 79.7117 28.2176H79.1328L85.5011 11.9734ZM82.6064 22.9101H89.5537L86.2247 14.5467C86.2247 14.3859 86.2247 14.3859 86.0801 14.2251C86.0801 14.0642 86.0801 14.0642 86.0801 13.9034C86.0801 13.7426 86.0801 13.7426 86.0801 13.5817C86.0801 13.7426 86.0801 13.7426 86.0801 13.9034C86.0801 14.0642 86.0801 14.0642 86.0801 14.2251C86.0801 14.3859 86.0801 14.3859 85.9353 14.5467L82.6064 22.9101Z" fill="#191A4B"/>
<path d="M94.3303 28.2176V11.9734H95.633V26.77H102.291V28.2176H94.3303Z" fill="#191A4B"/>
</svg>
