<svg width="34" height="35" viewBox="0 0 34 35" fill="none" xmlns="http://www.w3.org/2000/svg">
<path d="M18.9349 23.605H16.3483C14.5185 23.605 13.0189 22.0234 13.0189 20.0745C13.0189 19.4955 13.4866 19.0154 14.0507 19.0154C14.6148 19.0154 15.0826 19.4955 15.0826 20.0745C15.0826 20.8512 15.6467 21.4867 16.3483 21.4867H18.9349C19.4714 21.4867 19.8979 20.9924 19.8979 20.3852C19.8979 19.6226 19.6916 19.5096 19.2238 19.3402L15.0826 17.8573C14.2021 17.5467 13.0189 16.8829 13.0189 14.807C13.0189 13.0417 14.3809 11.5872 16.0457 11.5872H18.6322C20.462 11.5872 21.9616 13.1688 21.9616 15.1177C21.9616 15.6967 21.4939 16.1768 20.9298 16.1768C20.3657 16.1768 19.8979 15.6967 19.8979 15.1177C19.8979 14.341 19.3338 13.7055 18.6322 13.7055H16.0457C15.5091 13.7055 15.0826 14.1997 15.0826 14.807C15.0826 15.5696 15.289 15.6826 15.7567 15.852L19.8979 17.3348C20.7785 17.6455 21.9616 18.3093 21.9616 20.3852C21.9616 22.1646 20.5996 23.605 18.9349 23.605Z" fill="white"/>
<path d="M17.4902 25.02C16.9262 25.02 16.4584 24.5399 16.4584 23.9609V11.251C16.4584 10.672 16.9262 10.1919 17.4902 10.1919C18.0543 10.1919 18.5221 10.672 18.5221 11.251V23.9609C18.5221 24.5399 18.0543 25.02 17.4902 25.02Z" fill="white"/>
<path d="M17.4903 32.787C9.33168 32.787 2.70026 25.9801 2.70026 17.6058C2.70026 9.23139 9.33168 2.42456 17.4903 2.42456C18.0543 2.42456 18.5221 2.90471 18.5221 3.48371C18.5221 4.06272 18.0543 4.54287 17.4903 4.54287C10.4736 4.54287 4.76398 10.4035 4.76398 17.6058C4.76398 24.808 10.4736 30.6687 17.4903 30.6687C24.5069 30.6687 30.2165 24.808 30.2165 17.6058C30.2165 17.0268 30.6843 16.5466 31.2484 16.5466C31.8125 16.5466 32.2802 17.0268 32.2802 17.6058C32.2802 25.9801 25.6488 32.787 17.4903 32.787Z" fill="white"/>
<path d="M29.8726 11.604H24.3693C23.8052 11.604 23.3375 11.1239 23.3375 10.5449V4.89607C23.3375 4.31706 23.8052 3.83691 24.3693 3.83691C24.9334 3.83691 25.4012 4.31706 25.4012 4.89607V9.48573H29.8726C30.4367 9.48573 30.9044 9.96588 30.9044 10.5449C30.9044 11.1239 30.4367 11.604 29.8726 11.604Z" fill="white"/>
<path d="M24.3707 11.6055C24.1093 11.6055 23.8479 11.5066 23.6415 11.2948C23.4496 11.0955 23.342 10.8266 23.342 10.5463C23.342 10.2661 23.4496 9.99718 23.6415 9.79787L30.5206 2.73684C30.9196 2.3273 31.5799 2.3273 31.9789 2.73684C32.3779 3.14638 32.3779 3.82424 31.9789 4.23378L25.0999 11.2948C24.8935 11.5066 24.6321 11.6055 24.3707 11.6055Z" fill="white"/>
</svg>
