<svg width="132" height="40" viewBox="0 0 132 40" fill="none" xmlns="http://www.w3.org/2000/svg">
<path d="M6.94101 12.2529C7.79068 11.135 8.55185 10.0171 9.43693 8.98269C11.7735 6.29647 14.836 4.91166 18.4825 4.56127C20.2172 4.39443 21.9343 4.47785 23.6159 4.87828C23.97 4.96171 24.3594 5.24535 24.5718 5.52899C25.1914 6.41327 25.5454 7.43103 25.6516 8.56558C22.0582 7.66461 18.7125 7.98162 15.6856 10.0338C13.4906 11.5354 11.8974 13.4708 11.2071 15.9903C9.52544 22.0468 13.2074 27.7863 19.2082 29.7883C18.447 29.855 17.8629 29.9385 17.2964 29.9552C14.1278 29.9719 11.0301 29.5548 8.10931 28.3201C2.30319 25.8508 -0.281236 21.0957 0.143602 15.2727C0.656948 8.59895 5.87891 2.97624 12.7825 1.52468C16.2521 0.790562 19.5445 1.24105 22.5184 3.22651C22.7308 3.35998 22.9078 3.54352 23.0671 3.84384C22.6069 3.79379 22.1467 3.74374 21.6864 3.69368C17.8452 3.32661 14.2872 4.01069 11.154 6.22974C9.1183 7.66461 7.71988 9.53329 6.97641 11.8191C6.94101 11.9192 6.9233 12.0193 6.90561 12.1194C6.8879 12.1528 6.9233 12.1861 6.94101 12.2529Z" fill="#191A4B"/>
<path d="M29.7931 13.1033C31.3332 10.5673 31.2092 7.99783 30.0941 5.29494C30.6251 5.8789 31.2092 6.4128 31.6872 7.03013C33.9708 10.0667 33.4928 14.2879 30.5543 17.1744C28.6956 19.0096 26.359 19.9107 23.7392 20.1943C21.1371 20.4945 18.5703 20.261 16.1275 19.2932C15.9151 19.2099 15.7026 19.0931 15.2955 18.9095C16.3222 18.8261 17.172 18.7927 18.0038 18.7094C22.925 18.1921 26.9255 14.0376 26.8547 9.43271C26.7839 5.8622 25.0137 3.20936 21.6681 1.49085C21.3848 1.34069 21.084 1.20721 20.8185 1.02368C23.8454 1.49085 26.5892 2.44187 28.377 5.0113C30.1472 7.51398 30.5012 10.2336 29.7931 13.1033Z" fill="#191A4B"/>
<path d="M1.06415 24.3489C1.82531 25.133 2.46257 25.8838 3.17064 26.5512C5.79047 28.9704 8.97676 30.3053 12.5879 30.7724C16.5176 31.2729 20.3943 31.1228 24.1824 29.8881C26.3066 29.1873 28.2538 28.1863 30.0948 26.9684C30.5727 26.6513 31.086 26.3509 31.6348 26.1174C32.3782 25.817 32.8917 26.2009 32.75 26.9516C32.6615 27.3687 32.449 27.7859 32.1835 28.1196C28.9264 32.1238 24.6073 34.3596 19.279 34.7934C14.5174 35.1771 10.2159 33.9424 6.44542 31.1729C4.10882 29.4377 2.40947 27.2352 1.17036 24.7158C1.13495 24.6325 1.11725 24.5324 1.06415 24.3489Z" fill="#191A4B"/>
<path d="M43.5479 17.6916C43.5479 15.7728 43.5302 13.8541 43.5656 11.9354C43.5656 11.4682 43.6364 10.9677 43.8134 10.5339C44.0612 9.91654 44.6277 9.59953 45.3181 9.58285C48.1856 9.56616 51.0711 9.58285 53.9388 9.56616C54.3104 9.56616 54.4343 9.69963 54.4521 10.05C54.5229 11.3681 54.5406 11.3681 53.1245 11.3681C50.9825 11.3681 48.8407 11.3848 46.6987 11.3514C46.0969 11.3514 45.8668 11.5183 45.8844 12.1022C45.9199 13.2868 45.9199 14.4714 45.8844 15.6727C45.8668 16.2399 46.0969 16.3735 46.6634 16.3568C48.5574 16.3234 50.4692 16.3568 52.3633 16.3401C52.8588 16.3401 53.0182 16.4903 53.0005 16.9575C52.9474 18.3756 53.1776 18.142 51.7437 18.142C50.0444 18.1588 48.345 18.1588 46.6279 18.142C46.0969 18.142 45.8844 18.2588 45.8844 18.7927C45.9199 20.311 45.9199 21.8294 45.8844 23.3643C45.8668 23.9483 46.1146 24.1152 46.6987 24.1152C49.0176 24.0817 51.3366 24.1152 53.6555 24.0984C54.2219 24.0984 54.4874 24.1985 54.4521 24.8158C54.3812 26.1006 54.5759 25.9003 53.2837 25.9003C50.8586 25.9171 48.4158 25.9003 45.9907 25.9003C44.2559 25.9003 43.5832 25.283 43.5656 23.6313C43.5479 21.6457 43.5479 19.6603 43.5479 17.6916Z" fill="#191A4B"/>
<path d="M116.302 14.7885C116.302 13.2201 116.32 11.7853 116.284 10.3504C116.266 9.76642 116.426 9.53285 117.081 9.56622C118.479 9.61627 118.479 9.56622 118.479 10.9177C118.479 13.704 118.532 16.5071 118.461 19.2934C118.426 20.528 118.302 21.796 117.966 22.9806C117.417 24.916 115.895 25.9504 113.859 26.0173C111.186 26.1006 109.54 25.2664 108.743 23.2642C107.858 20.9952 107.823 18.676 108.726 16.4236C109.841 13.5705 113.434 12.6862 115.983 14.5716C116.054 14.605 116.107 14.6551 116.302 14.7885ZM116.39 19.6938C116.266 18.9596 116.178 17.9419 115.877 16.9742C115.523 15.8396 114.567 15.289 113.31 15.2723C112.071 15.2557 111.115 15.8063 110.708 16.9241C110.46 17.6082 110.336 18.3423 110.301 19.0597C110.23 20.2944 110.177 21.5624 110.708 22.7471C111.275 23.9816 112.266 24.4823 113.824 24.3487C115.01 24.2486 115.877 23.5145 116.125 22.2798C116.266 21.529 116.284 20.7449 116.39 19.6938Z" fill="#191A4B"/>
<path d="M70.1888 14.7218C70.1888 13.1702 70.2064 11.7186 70.1711 10.2671C70.1533 9.71647 70.348 9.54962 70.9145 9.5663C72.3306 9.58299 72.3306 9.5663 72.3306 10.8677C72.3306 13.8876 72.3837 16.9075 72.2953 19.9275C72.2598 21.0787 72.0474 22.2632 71.6757 23.3477C71.0562 25.133 69.5515 25.9172 67.6044 26.0006C65.9581 26.0673 64.4711 25.7503 63.3736 24.499C62.6656 23.6982 62.3293 22.7304 62.1522 21.7126C61.8514 19.9775 61.8867 18.259 62.5063 16.5906C63.6215 13.5874 67.2326 12.6363 69.8878 14.5884C69.9409 14.6384 70.0117 14.6551 70.1888 14.7218ZM70.295 19.844C70.1533 18.9932 70.0648 17.992 69.7817 17.041C69.4276 15.8564 68.4717 15.2892 67.1972 15.2557C65.905 15.2391 64.9491 15.8397 64.5242 17.0076C64.3473 17.5081 64.2234 18.0587 64.1702 18.5926C64.0463 20.0108 63.9932 21.429 64.595 22.7805C65.1261 23.9652 66.0997 24.4489 67.6044 24.3489C68.7903 24.2821 69.6223 23.6648 69.9233 22.4635C70.118 21.6626 70.1533 20.8284 70.295 19.844Z" fill="#191A4B"/>
<path d="M103.539 18.9764C103.946 16.7241 102.884 15.4561 100.6 15.3226C99.2903 15.2558 98.1221 15.5728 97.0068 16.3737C96.7766 15.9065 96.5288 15.5061 96.3872 15.0723C96.3341 14.9389 96.4758 14.6719 96.6174 14.5884C98.9539 13.3204 101.361 13.237 103.769 14.3549C104.884 14.8721 105.539 15.8232 105.61 16.941C105.716 18.8096 105.751 20.695 105.61 22.5637C105.468 24.3323 104.282 25.4001 102.423 25.7838C101.007 26.0842 99.5735 26.1175 98.1574 25.7672C96.1748 25.2833 95.3252 24.0986 95.4136 21.9797C95.4668 20.3279 96.5642 19.0766 98.4582 18.8931C99.9276 18.7429 101.45 18.8931 102.937 18.9097C103.114 18.9097 103.309 18.9598 103.539 18.9764ZM100.317 24.399C100.317 24.3823 100.317 24.3656 100.317 24.349C100.529 24.349 100.76 24.3656 100.972 24.349C102.37 24.2154 103.238 23.6148 103.468 22.5637C103.574 22.0632 103.556 21.5292 103.627 21.0121C103.663 20.6283 103.486 20.4781 103.114 20.4615C101.857 20.4281 100.6 20.3279 99.3611 20.3946C98.1751 20.4615 97.5909 21.0954 97.5378 22.1466C97.467 23.2811 97.998 23.9652 99.1486 24.2322C99.5204 24.3155 99.9276 24.349 100.317 24.399Z" fill="#191A4B"/>
<path d="M131.631 20.0943C131.49 20.8285 131.419 21.8295 131.118 22.7806C130.569 24.5826 129.295 25.7338 127.294 25.9674C124.32 26.3177 121.931 25.4168 121.152 22.1299C121.081 21.8129 121.028 21.4792 120.975 21.1455C120.78 19.7941 120.869 18.4426 121.258 17.1245C122.019 14.4383 124.179 13.4205 126.958 13.6708C129.861 13.9378 131.012 15.7564 131.401 17.9086C131.525 18.5261 131.543 19.1768 131.631 20.0943ZM129.596 19.7606C129.383 18.8097 129.241 17.7919 128.887 16.8409C128.48 15.723 127.471 15.2725 126.268 15.2725C125.082 15.2559 124.073 15.6897 123.595 16.7908C122.763 18.7596 122.763 20.7785 123.559 22.7639C124.055 23.9652 125.099 24.4157 126.427 24.3489C127.666 24.2988 128.569 23.7483 128.94 22.6471C129.259 21.7462 129.365 20.7951 129.596 19.7606Z" fill="#191A4B"/>
<path d="M80.0663 26.0173C77.0392 26.0173 75.1806 24.3489 74.8443 21.2956C74.6849 19.9107 74.7027 18.5093 75.1098 17.1412C75.871 14.5049 77.9243 13.3871 80.7212 13.6541C83.3587 13.9043 84.7217 15.2057 85.2174 17.675C85.5005 19.1266 85.5005 20.5782 85.1997 22.0131C84.6687 24.6658 82.9338 26.0173 80.0663 26.0173ZM83.4826 19.844C83.2526 18.8263 83.1109 17.842 82.7922 16.9243C82.4028 15.7731 81.3938 15.2892 80.1724 15.2724C78.9157 15.2558 77.9066 15.7396 77.4463 16.8742C77.1808 17.5416 77.0216 18.2756 76.9331 18.9932C76.7737 20.2945 76.8976 21.5792 77.4641 22.7972C77.9598 23.8651 78.8625 24.3489 80.1016 24.3489C81.323 24.3489 82.3143 23.9318 82.7391 22.8306C83.0755 21.8795 83.2348 20.8451 83.4826 19.844Z" fill="#191A4B"/>
<path d="M101.484 34.0258C102.724 34.9601 103.095 36.1281 102.617 37.4962C102.21 38.6807 101.201 39.3482 99.6612 39.3815C98.67 39.4149 97.6786 39.4149 96.6697 39.3982C95.8378 39.3815 95.4129 38.9811 95.3952 38.1802C95.3774 35.6108 95.3774 33.058 95.3952 30.4886C95.3952 29.7379 95.8023 29.3041 96.5458 29.2873C97.6964 29.2707 98.847 29.2707 99.9976 29.3374C101.06 29.4041 101.927 29.888 102.263 30.8891C102.635 31.9569 102.6 32.9913 101.626 33.8255C101.591 33.8924 101.555 33.9424 101.484 34.0258ZM96.8998 34.7265C96.8998 35.7943 96.8821 36.8287 96.9176 37.8632C96.9176 38.0134 97.1831 38.2637 97.3247 38.2637C98.1921 38.2804 99.0594 38.297 99.909 38.2136C100.83 38.1135 101.343 37.4462 101.378 36.4784C101.414 35.5607 100.953 34.8433 100.033 34.7432C99.0241 34.6431 97.9974 34.7265 96.8998 34.7265ZM96.8998 33.4752C97.8911 33.4752 98.7408 33.5086 99.6082 33.4585C100.529 33.4085 100.989 32.9413 101.024 32.1071C101.06 31.1561 100.688 30.5887 99.7851 30.4886C98.9533 30.3886 98.1212 30.4053 97.2715 30.4053C97.1476 30.4053 96.9176 30.6054 96.9176 30.7223C96.8821 31.6398 96.8998 32.5242 96.8998 33.4752Z" fill="#191A4B"/>
<path d="M60.0099 24.6157C59.7622 25.1328 59.5497 25.5833 59.3373 26.0171C58.0805 25.917 57.1424 24.9159 57.0538 23.5478C57.0008 22.7637 57.0185 21.9628 57.0185 21.1787C57.0185 17.558 57.0361 13.9208 57.0008 10.3003C57.0008 9.73299 57.16 9.53277 57.7796 9.56615C59.302 9.63289 59.0718 9.3993 59.0718 10.8008C59.0895 14.7216 59.0718 18.6425 59.0718 22.5468C59.0895 23.3309 59.1073 24.115 60.0099 24.6157Z" fill="#191A4B"/>
<path d="M95.3252 14.3211C95.095 14.7883 94.8648 15.2221 94.6524 15.6225C93.9267 15.5058 93.254 15.2554 92.6167 15.3055C90.9706 15.4224 90.0147 16.5736 90.0147 18.3588C89.9969 20.6113 89.9969 22.8637 90.0147 25.0994C90.0147 25.6667 89.8908 25.917 89.2181 25.8836C87.8374 25.8501 87.8374 25.8836 87.8374 24.5489C87.8374 22.5132 87.8196 20.4611 87.8374 18.4256C87.8551 17.0241 88.1737 15.706 89.3598 14.7049C90.8467 13.4535 93.555 13.2367 95.3252 14.3211Z" fill="#191A4B"/>
<path d="M110.654 33.1916C110.584 33.0582 110.442 32.7746 110.3 32.4909C111.539 31.4732 114.053 31.3897 115.292 32.2907C115.876 32.7078 116.213 33.2918 116.23 33.9425C116.266 35.1271 116.266 36.3116 116.142 37.4963C116.036 38.5474 115.239 39.2482 114.142 39.3816C113.327 39.4817 112.46 39.4817 111.646 39.3816C110.424 39.2482 109.752 38.4306 109.734 37.2794C109.716 36.0114 110.283 35.2439 111.539 35.027C112.265 34.9102 113.026 34.9435 113.77 34.9435C114.124 34.9435 114.46 34.9936 114.797 35.027C115.151 33.7089 114.442 32.7578 113.097 32.7913C112.318 32.8079 111.539 33.0248 110.654 33.1916ZM113.239 35.8946C113.239 35.8778 113.239 35.8612 113.239 35.8445C112.796 35.8946 112.371 35.9113 111.947 35.9946C111.38 36.1115 111.132 36.4953 111.097 37.0291C111.061 37.6131 111.256 38.0635 111.858 38.2804C112.637 38.5642 113.416 38.5141 114.159 38.1803C114.743 37.9134 115.186 36.9123 114.885 36.2784C114.761 36.028 114.124 35.9946 113.717 35.8778C113.557 35.8612 113.398 35.8946 113.239 35.8946Z" fill="#191A4B"/>
<path d="M123.329 33.3751C122.267 32.8077 121.346 32.5742 120.39 32.7911C120.001 32.8745 119.541 33.1915 119.346 33.5085C118.992 34.0925 119.311 34.7098 120.036 34.8433C120.745 34.9934 121.47 35.0268 122.196 35.1103C123.506 35.2604 124.143 35.7776 124.285 36.8287C124.444 37.9465 123.895 38.8309 122.727 39.2313C121.293 39.7152 119.877 39.5984 118.479 38.9978C117.895 38.7475 117.7 38.4304 118.107 37.8966C118.178 37.7965 118.231 37.6797 118.319 37.5462C119.346 38.2804 120.461 38.6641 121.736 38.3804C121.913 38.3471 122.09 38.297 122.231 38.2303C122.762 37.98 123.046 37.5796 122.957 37.0122C122.869 36.4616 122.444 36.2115 121.895 36.1446C121.152 36.0613 120.39 36.0112 119.665 35.8778C118.549 35.6609 117.965 35.0268 117.895 34.0591C117.824 33.0747 118.337 32.2571 119.364 31.9068C120.709 31.4396 122.019 31.5898 123.276 32.1738C124.002 32.5241 123.205 32.8578 123.329 33.3751Z" fill="#191A4B"/>
<path d="M129.649 33.8255C129.649 32.4908 129.666 31.156 129.631 29.8379C129.613 29.3707 129.843 29.2874 130.268 29.2874C130.693 29.2874 130.976 29.3374 130.976 29.8546C130.959 32.2906 130.941 34.7266 130.994 37.1625C130.994 37.6297 131.313 38.0801 131.383 38.5472C131.419 38.8142 131.295 39.1312 131.153 39.3815C131.1 39.4649 130.711 39.4483 130.551 39.3481C129.897 38.981 129.684 38.3972 129.666 37.713C129.649 36.4116 129.649 35.1103 129.649 33.8255Z" fill="#191A4B"/>
<path d="M109.345 32.1239C109.186 32.4242 109.044 32.7078 108.885 32.9914C108.672 32.9247 108.513 32.858 108.336 32.8079C107.132 32.5077 106.106 33.1416 106.035 34.3096C105.964 35.7278 105.999 37.1459 105.982 38.5641C105.982 38.831 105.946 39.098 105.929 39.365C105.752 39.3984 105.61 39.415 105.486 39.4317C104.601 39.4651 104.583 39.4651 104.583 38.6475C104.583 37.1959 104.512 35.7278 104.636 34.2762C104.866 32.0404 107.203 30.9726 109.345 32.1239Z" fill="#191A4B"/>
<path d="M125.896 31.7902C125.967 31.7734 126.002 31.7567 126.055 31.7567C127.117 31.69 127.117 31.69 127.117 32.6911C127.117 34.2094 127.082 35.7277 127.135 37.246C127.152 37.6631 127.453 38.0802 127.507 38.514C127.542 38.7976 127.4 39.1147 127.259 39.3983C127.223 39.465 126.852 39.4484 126.692 39.365C126.126 39.098 125.825 38.6142 125.825 38.0468C125.79 36.0113 125.825 33.9592 125.825 31.9236C125.825 31.8903 125.86 31.8569 125.896 31.7902Z" fill="#191A4B"/>
<path d="M126.427 30.8226C125.967 30.7892 125.666 30.5556 125.63 30.0884C125.595 29.6547 125.984 29.2876 126.462 29.3043C126.958 29.3209 127.223 29.6213 127.276 30.0717C127.294 30.4388 126.869 30.8226 126.427 30.8226Z" fill="#191A4B"/>
</svg>
