<svg width="58" height="54" viewBox="0 0 58 54" fill="none" xmlns="http://www.w3.org/2000/svg">
<path d="M37.5291 52.9709C37.5291 52.9709 56.4251 48.5527 57.2051 28.5045V0H27.9931C27.9931 0 2.83209 0.0475061 0.341156 25.4403C0.341156 25.4403 2.73146 5.39211 25.5022 3.4443H54.1102V29.2409C54.1102 29.2409 55.6954 45.726 37.5291 52.9709Z" fill="#191A4B"/>
<path d="M15.0346 22.0673H17.7016L16.972 22.7561V34.918L17.6765 35.5832H14.2043L14.9339 34.8943L15.0346 22.0673Z" fill="#191A4B"/>
<path d="M6.12839 35.6306H9.80189L9.09738 34.9655V29.3833H11.538L12.318 30.1198V27.198L11.689 27.7918H9.09738V26.5092C9.09738 26.5092 9.19803 24.1813 11.5632 24.1813H12.9219L13.6013 24.8226V21.996L12.9973 22.5661H10.8335C10.8335 22.5661 6.88321 22.6373 6.88321 26.2954V27.8631H6.12839L6.93354 28.6232V34.918L6.12839 35.6306Z" fill="#191A4B"/>
<path d="M23.867 25.5353C20.7722 25.5353 18.2561 27.792 18.2561 30.5948C18.2561 33.374 20.7722 35.6545 23.867 35.6545C26.9618 35.6545 29.4779 33.3978 29.4779 30.5948C29.503 27.792 26.987 25.5353 23.867 25.5353ZM23.867 33.8967C21.9295 33.8967 20.3696 32.4002 20.3696 30.5712C20.3696 28.7421 21.9295 27.2457 23.867 27.2457C25.8043 27.2457 27.3644 28.7421 27.3644 30.5712C27.3644 32.4002 25.8043 33.8967 23.867 33.8967Z" fill="#191A4B"/>
<path d="M29.9056 35.5831L30.6101 34.918V26.4856L29.9056 25.8205H32.8998V27.0793C32.8998 27.0793 33.8558 25.9629 35.3656 25.9155L35.9191 25.3928V28.4809L35.3153 27.9108C35.3153 27.9108 32.925 27.697 32.925 30.4049C32.925 33.1128 32.925 34.918 32.925 34.918L33.6295 35.5831H29.9056Z" fill="#191A4B"/>
<path d="M47.5684 31.2363C47.5936 31.0225 47.6187 30.8087 47.6187 30.595C47.6187 30.3812 47.5936 30.1673 47.5684 29.9535V26.7468L48.3987 25.9629H45.1278V26.4142C44.2219 25.8679 43.1652 25.5591 42.0078 25.5591C38.913 25.5591 36.3969 27.8158 36.3969 30.6186C36.3969 33.3978 38.913 35.6783 42.0078 35.6783C43.1652 35.6783 44.2471 35.3695 45.1278 34.8232V35.4645H48.3735L47.5684 34.7044V31.2363ZM42.0078 33.8967C40.0704 33.8967 38.5104 32.4002 38.5104 30.5712C38.5104 28.7421 40.0704 27.2457 42.0078 27.2457C43.9451 27.2457 45.5052 28.7421 45.5052 30.5712C45.5052 32.4002 43.9451 33.8967 42.0078 33.8967Z" fill="#191A4B"/>
</svg>
