<svg width="33" height="34" viewBox="0 0 33 34" fill="none" xmlns="http://www.w3.org/2000/svg">
<path d="M16.3248 11.627C13.3775 11.627 10.9723 14.1157 10.9723 17.1652C10.9723 20.2147 13.3775 22.7033 16.3248 22.7033C19.2722 22.7033 21.6774 20.2147 21.6774 17.1652C21.6774 14.1157 19.2722 11.627 16.3248 11.627ZM32.3786 17.1652C32.3786 14.8718 32.3986 12.5992 32.2742 10.31C32.1497 7.65106 31.5634 5.29123 29.6842 3.34686C27.801 1.39833 25.5242 0.795911 22.9543 0.667118C20.7378 0.538324 18.5414 0.559097 16.3288 0.559097C14.1123 0.559097 11.9159 0.538324 9.70338 0.667118C7.1335 0.795911 4.85273 1.40249 2.97351 3.34686C1.09027 5.29538 0.508028 7.65106 0.38355 10.31C0.259071 12.6034 0.279148 14.876 0.279148 17.1652C0.279148 19.4544 0.259071 21.7311 0.38355 24.0203C0.508028 26.6793 1.09428 29.0391 2.97351 30.9835C4.85675 32.932 7.1335 33.5344 9.70338 33.6632C11.9199 33.792 14.1163 33.7712 16.3288 33.7712C18.5454 33.7712 20.7418 33.792 22.9543 33.6632C25.5242 33.5344 27.805 32.9279 29.6842 30.9835C31.5674 29.035 32.1497 26.6793 32.2742 24.0203C32.4026 21.7311 32.3786 19.4585 32.3786 17.1652ZM16.3248 25.6863C11.7673 25.6863 8.08917 21.8807 8.08917 17.1652C8.08917 12.4497 11.7673 8.64402 16.3248 8.64402C20.8824 8.64402 24.5605 12.4497 24.5605 17.1652C24.5605 21.8807 20.8824 25.6863 16.3248 25.6863ZM24.8978 10.2851C23.8337 10.2851 22.9744 9.396 22.9744 8.29503C22.9744 7.19405 23.8337 6.30496 24.8978 6.30496C25.9619 6.30496 26.8212 7.19405 26.8212 8.29503C26.8215 8.55646 26.772 8.81539 26.6754 9.05698C26.5789 9.29858 26.4372 9.51809 26.2585 9.70295C26.0799 9.88781 25.8677 10.0344 25.6342 10.1343C25.4007 10.2342 25.1505 10.2854 24.8978 10.2851Z" fill="#34358D"/>
</svg>
