<svg width="33" height="35" viewBox="0 0 33 35" fill="none" xmlns="http://www.w3.org/2000/svg">
<path d="M16.8055 11.8647C13.8582 11.8647 11.453 14.3533 11.453 17.4028C11.453 20.4523 13.8582 22.9409 16.8055 22.9409C19.7529 22.9409 22.1581 20.4523 22.1581 17.4028C22.1581 14.3533 19.7529 11.8647 16.8055 11.8647ZM32.8593 17.4028C32.8593 15.1095 32.8793 12.8369 32.7549 10.5477C32.6304 7.8887 32.0441 5.52887 30.1649 3.5845C28.2817 1.63597 26.0049 1.03355 23.435 0.904758C21.2185 0.775964 19.0221 0.796737 16.8096 0.796737C14.593 0.796737 12.3966 0.775964 10.1841 0.904758C7.61421 1.03355 5.33344 1.64013 3.45422 3.5845C1.57098 5.53302 0.988741 7.8887 0.864263 10.5477C0.739784 12.841 0.759861 15.1136 0.759861 17.4028C0.759861 19.692 0.739784 21.9688 0.864263 24.258C0.988741 26.9169 1.575 29.2768 3.45422 31.2211C5.33746 33.1697 7.61421 33.7721 10.1841 33.9009C12.4006 34.0297 14.5971 34.0089 16.8096 34.0089C19.0261 34.0089 21.2225 34.0297 23.435 33.9009C26.0049 33.7721 28.2857 33.1655 30.1649 31.2211C32.0481 29.2726 32.6304 26.9169 32.7549 24.258C32.8834 21.9688 32.8593 19.6962 32.8593 17.4028ZM16.8055 25.924C12.248 25.924 8.56989 22.1183 8.56989 17.4028C8.56989 12.6873 12.248 8.88166 16.8055 8.88166C21.3631 8.88166 25.0412 12.6873 25.0412 17.4028C25.0412 22.1183 21.3631 25.924 16.8055 25.924ZM25.3785 10.5227C24.3144 10.5227 23.4551 9.63365 23.4551 8.53267C23.4551 7.43169 24.3144 6.5426 25.3785 6.5426C26.4426 6.5426 27.3019 7.43169 27.3019 8.53267C27.3022 8.7941 27.2527 9.05303 27.1561 9.29462C27.0596 9.53622 26.9179 9.75573 26.7393 9.94059C26.5606 10.1255 26.3484 10.272 26.1149 10.3719C25.8814 10.4718 25.6312 10.5231 25.3785 10.5227Z" fill="white"/>
</svg>
