<svg width="27" height="29" viewBox="0 0 27 29" fill="none" xmlns="http://www.w3.org/2000/svg">
<path d="M13.843 9.90059C11.4335 9.90059 9.46721 11.9351 9.46721 14.4281C9.46721 16.9212 11.4335 18.9557 13.843 18.9557C16.2525 18.9557 18.2189 16.9212 18.2189 14.4281C18.2189 11.9351 16.2525 9.90059 13.843 9.90059ZM26.9673 14.4281C26.9673 12.5533 26.9837 10.6954 26.8819 8.8239C26.7802 6.65015 26.3009 4.72094 24.7646 3.13138C23.225 1.53842 21.3637 1.04593 19.2628 0.940637C17.4507 0.835346 15.6551 0.852329 13.8463 0.852329C12.0343 0.852329 10.2386 0.835346 8.42987 0.940637C6.32895 1.04593 4.46437 1.54182 2.92807 3.13138C1.38848 4.72433 0.912494 6.65015 0.81073 8.8239C0.708966 10.6988 0.72538 12.5567 0.72538 14.4281C0.72538 16.2996 0.708966 18.1609 0.81073 20.0323C0.912494 22.2061 1.39177 24.1353 2.92807 25.7249C4.46766 27.3178 6.32895 27.8103 8.42987 27.9156C10.2419 28.0209 12.0376 28.0039 13.8463 28.0039C15.6584 28.0039 17.454 28.0209 19.2628 27.9156C21.3637 27.8103 23.2283 27.3144 24.7646 25.7249C26.3042 24.1319 26.7802 22.2061 26.8819 20.0323C26.987 18.1609 26.9673 16.303 26.9673 14.4281ZM13.843 21.3943C10.1172 21.3943 7.11023 18.2831 7.11023 14.4281C7.11023 10.5731 10.1172 7.46191 13.843 7.46191C17.5689 7.46191 20.5759 10.5731 20.5759 14.4281C20.5759 18.2831 17.5689 21.3943 13.843 21.3943ZM20.8516 8.80352C19.9817 8.80352 19.2792 8.07667 19.2792 7.1766C19.2792 6.27653 19.9817 5.54968 20.8516 5.54968C21.7215 5.54968 22.424 6.27653 22.424 7.1766C22.4243 7.39033 22.3838 7.60201 22.3049 7.79952C22.2259 7.99703 22.1101 8.17648 21.964 8.32761C21.818 8.47874 21.6445 8.59856 21.4537 8.68023C21.2628 8.7619 21.0582 8.80379 20.8516 8.80352Z" fill="#191A4B"/>
</svg>
