<svg width="30" height="37" viewBox="0 0 30 37" fill="none" xmlns="http://www.w3.org/2000/svg">
<path d="M29.6557 15.2708C26.7463 15.2781 23.9083 14.3242 21.5426 12.5438V24.9608C21.5418 27.2606 20.8732 29.5053 19.6262 31.3948C18.3792 33.2843 16.6133 34.7285 14.5645 35.5343C12.5157 36.3401 10.2818 36.4692 8.16143 35.9041C6.04104 35.3391 4.13526 34.1069 2.69892 32.3724C1.26259 30.6379 0.364154 28.4837 0.12376 26.1978C-0.116635 23.912 0.312467 21.6035 1.35369 19.5809C2.39491 17.5584 3.99862 15.9183 5.95038 14.8799C7.90214 13.8415 10.1089 13.4543 12.2756 13.7701V20.0154C11.2841 19.6875 10.2195 19.6974 9.23362 20.0436C8.24778 20.3899 7.39121 21.0548 6.78623 21.9433C6.18125 22.8319 5.85879 23.8988 5.86492 24.9915C5.87104 26.0842 6.20542 27.147 6.82032 28.028C7.43521 28.9091 8.29917 29.5633 9.28882 29.8973C10.2785 30.2313 11.3432 30.228 12.3309 29.8878C13.3187 29.5477 14.179 28.8881 14.7889 28.0033C15.3988 27.1184 15.7272 26.0536 15.7272 24.9608V0.686752H21.5426C21.5385 1.20307 21.5797 1.71868 21.6655 2.22707C21.8676 3.36197 22.2878 4.44161 22.9003 5.39993C23.5129 6.35825 24.3049 7.17512 25.2281 7.80057C26.5414 8.71357 28.0812 9.20019 29.6557 9.19985V15.2708Z" fill="white"/>
</svg>
