<svg width="21" height="21" viewBox="0 0 21 21" fill="none" xmlns="http://www.w3.org/2000/svg">
<path d="M4.02494 17.1361C3.56661 17.1361 3.17439 16.973 2.84828 16.6469C2.52161 16.3202 2.35828 15.9277 2.35828 15.4694V5.4694C2.35828 5.01107 2.52161 4.61885 2.84828 4.29273C3.17439 3.96607 3.56661 3.80273 4.02494 3.80273H17.3583C17.8166 3.80273 18.2091 3.96607 18.5358 4.29273C18.8619 4.61885 19.0249 5.01107 19.0249 5.4694V15.4694C19.0249 15.9277 18.8619 16.3202 18.5358 16.6469C18.2091 16.973 17.8166 17.1361 17.3583 17.1361H4.02494ZM10.6916 11.3027L17.3583 7.13607V5.4694L10.6916 9.63607L4.02494 5.4694V7.13607L10.6916 11.3027Z" fill="white"/>
</svg>
