<svg width="25" height="26" viewBox="0 0 25 26" fill="none" xmlns="http://www.w3.org/2000/svg">
<g opacity="0.4">
<path d="M22.073 8.73559L18.7605 5.42309C17.5105 4.17309 15.7917 4.23559 14.948 5.57934L13.1042 8.496L19.0105 14.4023L21.9272 12.5585C23.1876 11.7564 23.2605 9.91267 22.073 8.73559V8.73559Z" stroke="#2E3092" stroke-width="1.5" stroke-linecap="round" stroke-linejoin="round"/>
<path d="M19.0105 14.3939L19.2605 18.6856C19.5001 21.0814 18.6667 21.9147 16.3959 22.1856L7.31255 23.2585C5.39589 23.4772 4.02089 22.1022 4.25005 20.196L5.27089 11.571M13.1042 8.49599L11.2813 8.38141M5.50109 22.0064L8.8136 18.6835" stroke="#2E3092" stroke-width="1.5" stroke-linecap="round" stroke-linejoin="round"/>
</g>
<path d="M6.79275 8.88144V5.38144M8.50004 7.13144H5.00004M11.4584 7.13144C11.4584 7.55852 11.3959 7.9856 11.2813 8.38144C11.0395 9.26234 10.543 10.0523 9.85421 10.6523C9.03129 11.3814 7.95837 11.8189 6.77087 11.8189C6.23962 11.8189 5.73962 11.7356 5.27087 11.5689C4.22002 11.2159 3.32976 10.4993 2.76046 9.5481C2.3193 8.81906 2.08521 7.98356 2.08337 7.13144C2.08337 5.65227 2.76046 4.32935 3.84379 3.47519C4.53229 2.9216 5.36338 2.57415 6.24102 2.47297C7.11866 2.3718 8.00702 2.52103 8.80342 2.90344C9.59982 3.28584 10.2718 3.8858 10.7416 4.63397C11.2114 5.38214 11.4599 6.24799 11.4584 7.13144V7.13144Z" stroke="#2E3092" stroke-width="1.5" stroke-miterlimit="10" stroke-linecap="round" stroke-linejoin="round"/>
</svg>
