<svg width="21" height="21" viewBox="0 0 21 21" fill="none" xmlns="http://www.w3.org/2000/svg">
<path d="M3.19165 3.84424C3.19165 3.59424 3.27498 3.3859 3.44165 3.21924C3.60832 3.05257 3.81665 2.96924 4.06665 2.96924L7.44165 2.96924C7.6361 2.96924 7.80637 3.03174 7.95248 3.15674C8.09804 3.28174 8.19165 3.44146 8.23332 3.6359L8.81665 6.5109C8.84443 6.70535 8.82721 6.9034 8.76498 7.10507C8.70221 7.30618 8.60832 7.46924 8.48332 7.59424L6.52498 9.55257C7.16387 10.6081 7.92082 11.5734 8.79582 12.4484C9.67082 13.3234 10.6083 14.0526 11.6083 14.6359L13.65 12.6359C13.775 12.5109 13.9175 12.4309 14.0775 12.3959C14.2369 12.3615 14.4139 12.3581 14.6083 12.3859L17.525 12.9276C17.7194 12.9553 17.8792 13.0456 18.0042 13.1984C18.1292 13.3512 18.1917 13.5248 18.1917 13.7192V17.0942C18.1917 17.3442 18.1083 17.5526 17.9417 17.7192C17.775 17.8859 17.5667 17.9692 17.3167 17.9692C15.525 17.9692 13.7786 17.5698 12.0775 16.7709C10.3758 15.9726 8.86887 14.917 7.55665 13.6042C6.24387 12.292 5.18832 10.7853 4.38998 9.08424C3.59109 7.38257 3.19165 5.63591 3.19165 3.84424Z" fill="white"/>
</svg>
