<svg width="75" height="18" viewBox="0 0 75 18" fill="none" xmlns="http://www.w3.org/2000/svg">
<ellipse cx="37.9783" cy="8.82679" rx="8.64715" ry="8.6012" fill="white"/>
<path d="M37.978 7.35335C37.1623 7.35335 36.4966 8.01549 36.4966 8.82686C36.4966 9.63824 37.1623 10.3004 37.978 10.3004C38.7937 10.3004 39.4594 9.63824 39.4594 8.82686C39.4594 8.01549 38.7937 7.35335 37.978 7.35335ZM42.4211 8.82686C42.4211 8.21668 42.4266 7.61202 42.3922 7.00293C42.3577 6.29547 42.1955 5.6676 41.6754 5.15026C41.1542 4.63183 40.5241 4.47154 39.8128 4.43727C39.1994 4.403 38.5915 4.40853 37.9791 4.40853C37.3657 4.40853 36.7578 4.403 36.1455 4.43727C35.4342 4.47154 34.803 4.63293 34.2829 5.15026C33.7617 5.6687 33.6005 6.29547 33.5661 7.00293C33.5316 7.61312 33.5372 8.21778 33.5372 8.82686C33.5372 9.43595 33.5316 10.0417 33.5661 10.6508C33.6005 11.3583 33.7628 11.9861 34.2829 12.5035C34.8041 13.0219 35.4342 13.1822 36.1455 13.2165C36.7589 13.2507 37.3668 13.2452 37.9791 13.2452C38.5926 13.2452 39.2005 13.2507 39.8128 13.2165C40.5241 13.1822 41.1553 13.0208 41.6754 12.5035C42.1966 11.985 42.3577 11.3583 42.3922 10.6508C42.4277 10.0417 42.4211 9.43705 42.4211 8.82686ZM37.978 11.0941C36.7167 11.0941 35.6987 10.0815 35.6987 8.82686C35.6987 7.57222 36.7167 6.55966 37.978 6.55966C39.2394 6.55966 40.2573 7.57222 40.2573 8.82686C40.2573 10.0815 39.2394 11.0941 37.978 11.0941ZM40.3507 6.9963C40.0562 6.9963 39.8184 6.75974 39.8184 6.46681C39.8184 6.17388 40.0562 5.93732 40.3507 5.93732C40.6452 5.93732 40.883 6.17388 40.883 6.46681C40.8831 6.53637 40.8694 6.60526 40.8427 6.66954C40.8159 6.73382 40.7767 6.79223 40.7273 6.84141C40.6778 6.8906 40.6191 6.9296 40.5545 6.95617C40.4899 6.98275 40.4206 6.99639 40.3507 6.9963Z" fill="#595656"/>
<ellipse cx="66.0446" cy="8.86829" rx="8.64715" ry="8.6012" fill="white"/>
<path d="M68.3662 9.48941L68.6434 7.69279H66.9102V6.52691C66.9102 6.03539 67.1523 5.55628 67.9285 5.55628H68.7165V4.02665C68.7165 4.02665 68.0015 3.90527 67.3178 3.90527C65.8906 3.90527 64.9576 4.76577 64.9576 6.32352V7.69279H63.3711V9.48941H64.9576V13.8326H66.9102V9.48941H68.3662Z" fill="#595656"/>
<path d="M18.5591 9.04749C18.5591 14.1937 14.3993 17.4695 9.26802 17.4695C4.1367 17.4695 0.69165 14.1937 0.69165 9.04749C0.69165 3.90132 4.1367 0.26709 9.26802 0.26709C14.3993 0.26709 18.5591 3.90132 18.5591 9.04749Z" fill="white"/>
<path d="M12.413 4.54443H6.83729C5.16458 4.54443 4.04944 5.62533 4.04944 7.24668V10.4894C4.04944 12.1107 5.16458 13.1916 6.83729 13.1916H12.413C14.0857 13.1916 15.2008 12.1107 15.2008 10.4894V7.24668C15.2008 5.62533 14.0857 4.54443 12.413 4.54443ZM10.6789 9.4247L9.30174 10.2246C8.74417 10.5488 8.28697 10.3002 8.28697 9.6679V8.06276C8.28697 7.43044 8.74417 7.18183 9.30174 7.5061L10.6789 8.30596C11.2086 8.61943 11.2086 9.11664 10.6789 9.4247Z" fill="#595656"/>
</svg>
