<svg width="25" height="25" viewBox="0 0 25 25" fill="none" xmlns="http://www.w3.org/2000/svg">
<path d="M9.37504 22.9167H15.625C20.8334 22.9167 22.9167 20.8333 22.9167 15.625V9.37501C22.9167 4.16668 20.8334 2.08334 15.625 2.08334H9.37504C4.16671 2.08334 2.08337 4.16668 2.08337 9.37501V15.625C2.08337 20.8333 4.16671 22.9167 9.37504 22.9167Z" stroke="#2E3092" stroke-width="1.5" stroke-linecap="round" stroke-linejoin="round"/>
<path opacity="0.4" d="M17.7083 2.54269V12.9385C17.7083 14.9906 16.2395 15.7927 14.4375 14.7094L13.0625 13.8864C12.75 13.6989 12.25 13.6989 11.9375 13.8864L10.5625 14.7094C8.76038 15.7823 7.29163 14.9906 7.29163 12.9385V2.54269" stroke="#2E3092" stroke-width="1.5" stroke-linecap="round" stroke-linejoin="round"/>
<path d="M9.37504 22.9167H15.625C20.8334 22.9167 22.9167 20.8333 22.9167 15.625V9.37501C22.9167 4.16668 20.8334 2.08334 15.625 2.08334H9.37504C4.16671 2.08334 2.08337 4.16668 2.08337 9.37501V15.625C2.08337 20.8333 4.16671 22.9167 9.37504 22.9167Z" stroke="#2E3092" stroke-width="1.5" stroke-linecap="round" stroke-linejoin="round"/>
</svg>
