<svg width="25" height="25" viewBox="0 0 25 25" fill="none" xmlns="http://www.w3.org/2000/svg">
<path opacity="0.4" d="M9.69788 15.3125L11.2604 16.875L15.427 12.7083" stroke="#2E3092" stroke-width="1.5" stroke-linecap="round" stroke-linejoin="round"/>
<path d="M10.4167 6.25H14.5834C16.6667 6.25 16.6667 5.20833 16.6667 4.16666C16.6667 2.08333 15.625 2.08333 14.5834 2.08333H10.4167C9.37504 2.08333 8.33337 2.08333 8.33337 4.16666C8.33337 6.25 9.37504 6.25 10.4167 6.25Z" stroke="#2E3092" stroke-width="1.5" stroke-miterlimit="10" stroke-linecap="round" stroke-linejoin="round"/>
<path d="M16.6667 4.1875C20.1354 4.375 21.875 5.65625 21.875 10.4167V16.6667C21.875 20.8333 20.8333 22.9167 15.625 22.9167H9.375C4.16667 22.9167 3.125 20.8333 3.125 16.6667V10.4167C3.125 5.66667 4.86458 4.375 8.33333 4.1875" stroke="#2E3092" stroke-width="1.5" stroke-miterlimit="10" stroke-linecap="round" stroke-linejoin="round"/>
</svg>
