<svg width="17" height="20" viewBox="0 0 17 20" fill="none" xmlns="http://www.w3.org/2000/svg">
<path d="M8.69165 0.469238C6.57066 0.471483 4.53722 1.25865 3.03745 2.65804C1.53768 4.05743 0.694057 5.95477 0.69165 7.93381C0.69165 14.3211 7.96438 19.1476 8.27347 19.3512C8.39734 19.4282 8.54283 19.4692 8.69165 19.4692C8.84047 19.4692 8.98596 19.4282 9.10983 19.3512C9.41892 19.1476 16.6917 14.3211 16.6917 7.93381C16.6892 5.95477 15.8456 4.05743 14.3458 2.65804C12.8461 1.25865 10.8126 0.471483 8.69165 0.469238V0.469238ZM8.69165 5.21942C9.26702 5.21942 9.82946 5.37862 10.3079 5.67688C10.7863 5.97514 11.1591 6.39907 11.3793 6.89506C11.5995 7.39105 11.6571 7.93682 11.5448 8.46336C11.4326 8.98991 11.1555 9.47356 10.7487 9.85318C10.3418 10.2328 9.8235 10.4913 9.25919 10.596C8.69488 10.7008 8.10996 10.647 7.57839 10.4416C7.04682 10.2361 6.59249 9.88823 6.27283 9.44185C5.95318 8.99547 5.78256 8.47067 5.78256 7.93381C5.78256 7.21391 6.08905 6.5235 6.63461 6.01445C7.18017 5.5054 7.92011 5.21942 8.69165 5.21942V5.21942Z" fill="white"/>
</svg>
