<svg width="45" height="46" viewBox="0 0 45 46" fill="none" xmlns="http://www.w3.org/2000/svg">
<path d="M15 4.1416V9.7666M30 4.1416V9.7666" stroke="#2E3092" stroke-width="1.5" stroke-miterlimit="10" stroke-linecap="round" stroke-linejoin="round"/>
<path opacity="0.4" d="M6.5625 17.4353H38.4375" stroke="#2E3092" stroke-width="1.5" stroke-miterlimit="10" stroke-linecap="round" stroke-linejoin="round"/>
<path d="M41.25 36.0166C41.25 37.4229 40.8563 38.7541 40.1625 39.8791C39.5015 40.99 38.5626 41.9097 37.4382 42.5475C36.3138 43.1853 35.0427 43.5193 33.75 43.5166C31.8563 43.5166 30.1313 42.8229 28.8188 41.6416C28.2375 41.1541 27.7313 40.5541 27.3375 39.8791C26.6238 38.7174 26.2472 37.38 26.25 36.0166C26.25 31.8729 29.6063 28.5166 33.75 28.5166C36 28.5166 38.0063 29.5104 39.375 31.0666C40.5808 32.4339 41.2474 34.1936 41.25 36.0166Z" stroke="#2E3092" stroke-width="1.5" stroke-miterlimit="10" stroke-linecap="round" stroke-linejoin="round"/>
<path d="M30.825 36.0167L32.6812 37.8729L36.6749 34.1792" stroke="#2E3092" stroke-width="1.5" stroke-linecap="round" stroke-linejoin="round"/>
<path d="M39.375 16.3291V31.0666C38.0062 29.5104 36 28.5166 33.75 28.5166C29.6062 28.5166 26.25 31.8729 26.25 36.0166C26.25 37.4229 26.6437 38.7541 27.3375 39.8791C27.7312 40.5541 28.2375 41.1541 28.8187 41.6416H15C8.4375 41.6416 5.625 37.8916 5.625 32.2666V16.3291C5.625 10.7041 8.4375 6.9541 15 6.9541H30C36.5625 6.9541 39.375 10.7041 39.375 16.3291Z" stroke="#2E3092" stroke-width="1.5" stroke-miterlimit="10" stroke-linecap="round" stroke-linejoin="round"/>
<path opacity="0.4" d="M22.4906 26.0791H22.5075M15.5531 26.0791H15.5719M15.5531 31.7041H15.57" stroke="#2E3092" stroke-width="2" stroke-linecap="round" stroke-linejoin="round"/>
</svg>
