<svg width="78" height="78" viewBox="0 0 78 78" fill="none" xmlns="http://www.w3.org/2000/svg">
<circle cx="39.4162" cy="39.1588" r="38.5381" fill="#2E3092"/>
<path d="M35.1053 37.5358C34.9485 37.5201 34.7603 37.5201 34.5877 37.5358C32.7874 37.4747 31.0815 36.7152 29.8314 35.4183C28.5812 34.1213 27.885 32.3886 27.8901 30.5872C27.8901 26.7443 30.9958 23.623 34.8544 23.623C36.6993 23.5897 38.482 24.2907 39.8101 25.5717C41.1382 26.8528 41.903 28.609 41.9363 30.4539C41.9696 32.2989 41.2686 34.0815 39.9875 35.4096C38.7065 36.7377 36.9503 37.5026 35.1053 37.5358V37.5358Z" stroke="white" stroke-width="1.5" stroke-linecap="round" stroke-linejoin="round"/>
<path opacity="0.4" d="M46.4808 26.7583C49.5238 26.7583 51.9707 29.2209 51.9707 32.2482C51.9707 35.2127 49.6179 37.6282 46.6847 37.738C46.5492 37.7223 46.4124 37.7223 46.2769 37.738" stroke="white" stroke-width="1.5" stroke-linecap="round" stroke-linejoin="round"/>
<path d="M27.2631 43.3235C23.4672 45.8645 23.4672 50.0054 27.2631 52.5308C31.5765 55.4169 38.6506 55.4169 42.9641 52.5308C46.7599 49.9897 46.7599 45.8488 42.9641 43.3235C38.6663 40.4531 31.5922 40.4531 27.2631 43.3235V43.3235Z" stroke="white" stroke-width="1.5" stroke-linecap="round" stroke-linejoin="round"/>
<path opacity="0.4" d="M49.5067 51.8563C50.6361 51.621 51.7027 51.1661 52.581 50.4916C55.0279 48.6565 55.0279 45.6292 52.581 43.794C51.7183 43.1352 50.6674 42.696 49.5538 42.4451" stroke="white" stroke-width="1.5" stroke-linecap="round" stroke-linejoin="round"/>
</svg>
