<svg width="45" height="46" viewBox="0 0 45 46" fill="none" xmlns="http://www.w3.org/2000/svg">
<path d="M41.25 19.4082V25.0332C41.25 32.5332 37.5 36.2832 30 36.2832H29.0625C28.4812 36.2832 27.9187 36.5645 27.5625 37.0332L24.75 40.7832C23.5125 42.4332 21.4875 42.4332 20.25 40.7832L17.4375 37.0332C17.1375 36.6207 16.4438 36.2832 15.9375 36.2832H15C7.5 36.2832 3.75 34.4082 3.75 25.0332V15.6582C3.75 8.1582 7.5 4.4082 15 4.4082H26.25" stroke="#2E3092" stroke-width="1.5" stroke-miterlimit="10" stroke-linecap="round" stroke-linejoin="round"/>
<path opacity="0.4" d="M36.5625 13.7832C37.8057 13.7832 38.998 13.2893 39.8771 12.4103C40.7561 11.5312 41.25 10.3389 41.25 9.0957C41.25 7.8525 40.7561 6.66022 39.8771 5.78114C38.998 4.90206 37.8057 4.4082 36.5625 4.4082C35.3193 4.4082 34.127 4.90206 33.2479 5.78114C32.3689 6.66022 31.875 7.8525 31.875 9.0957C31.875 10.3389 32.3689 11.5312 33.2479 12.4103C34.127 13.2893 35.3193 13.7832 36.5625 13.7832V13.7832Z" stroke="#2E3092" stroke-width="1.5" stroke-linecap="round" stroke-linejoin="round"/>
<path opacity="0.4" d="M29.9906 21.2832H30.0056M22.4906 21.2832H22.5075M14.9906 21.2832H15.0056" stroke="#2E3092" stroke-width="2" stroke-linecap="round" stroke-linejoin="round"/>
</svg>
