<svg width="46" height="46" viewBox="0 0 46 46" fill="none" xmlns="http://www.w3.org/2000/svg">
<path opacity="0.4" d="M32.3335 27.7332C34.9023 28.1645 37.7335 27.7145 39.721 26.3832C42.3648 24.6207 42.3648 21.7332 39.721 19.9707C37.7148 18.6395 34.846 18.1895 32.2773 18.6395M13.6379 27.7332C11.0691 28.1645 8.23789 27.7145 6.25039 26.3832C3.60664 24.6207 3.60664 21.7332 6.25039 19.9707C8.25664 18.6395 11.1254 18.1895 13.6941 18.6395M34.2648 14.0832C34.1468 14.0644 34.0265 14.0644 33.9085 14.0832C32.6572 14.038 31.4725 13.508 30.6048 12.6053C29.7371 11.7025 29.2543 10.4978 29.2585 9.2457C29.2585 6.56445 31.4148 4.4082 34.096 4.4082C35.379 4.4082 36.6094 4.91787 37.5166 5.82507C38.4239 6.73228 38.9335 7.96272 38.9335 9.2457C38.9301 10.4987 38.4423 11.7019 37.5721 12.6035C36.7019 13.5051 35.5169 14.0353 34.2648 14.0832V14.0832ZM11.7066 14.0832C11.8191 14.0645 11.9504 14.0645 12.0629 14.0832C13.3142 14.038 14.4989 13.508 15.3666 12.6053C16.2344 11.7025 16.7171 10.4978 16.7129 9.2457C16.7129 6.56445 14.5566 4.4082 11.8754 4.4082C10.5924 4.4082 9.36197 4.91787 8.45476 5.82507C7.54755 6.73228 7.03789 7.96272 7.03789 9.2457C7.05664 11.8707 9.11914 13.9895 11.7066 14.0832V14.0832Z" stroke="#2E3092" stroke-width="1.5" stroke-linecap="round" stroke-linejoin="round"/>
<path d="M23.0148 28.0876C22.8968 28.0688 22.7766 28.0688 22.6586 28.0876C21.4073 28.0423 20.2226 27.5124 19.3548 26.6097C18.4871 25.7069 18.0044 24.5022 18.0086 23.2501C18.0086 20.5688 20.1648 18.4126 22.8461 18.4126C24.1291 18.4126 25.3595 18.9223 26.2667 19.8295C27.1739 20.7367 27.6836 21.9671 27.6836 23.2501C27.6648 25.8751 25.6023 28.0126 23.0148 28.0876ZM17.5604 33.9957C14.9167 35.7582 14.9167 38.6457 17.5604 40.4082C20.5604 42.4145 25.473 42.4145 28.473 40.4082C31.1167 38.6457 31.1167 35.7582 28.473 33.9957C25.4917 32.0082 20.5604 32.0082 17.5604 33.9957Z" stroke="#2E3092" stroke-width="1.5" stroke-linecap="round" stroke-linejoin="round"/>
</svg>
