<svg width="45" height="46" viewBox="0 0 45 46" fill="none" xmlns="http://www.w3.org/2000/svg">
<path d="M19.5563 33.694C19.5563 35.7565 18.7688 37.7252 17.2875 39.2252C16.1438 40.369 14.5875 41.1565 12.7313 41.4002L8.11877 41.9065C5.60627 42.1877 3.45002 40.0502 3.75002 37.5002L4.25627 32.8877C4.70627 28.7815 8.13753 26.1565 11.775 26.0815C12.15 26.0627 12.5438 26.0815 12.9 26.1002C14.4938 26.3065 16.05 27.0377 17.325 28.3315C18.5813 29.5877 19.2938 31.0502 19.5 32.6252C19.5188 32.9815 19.5563 33.3377 19.5563 33.694V33.694Z" stroke="#2E3092" stroke-width="1.5" stroke-linecap="round" stroke-linejoin="round"/>
<g opacity="0.4">
<path d="M40.8937 8.04181C38.0062 15.2418 30.7687 25.0293 24.7125 29.8856L21.0187 32.8481C20.55 33.1856 20.0812 33.4856 19.5562 33.6918C19.5562 33.3543 19.5375 32.9793 19.4812 32.6231C19.275 31.0481 18.5625 29.5856 17.3062 28.3293C16.0312 27.0543 14.475 26.3043 12.8812 26.0981C12.5062 26.0793 12.1312 26.0418 11.7562 26.0793C11.9625 25.4981 12.2812 24.9543 12.675 24.5043L15.6 20.8106C20.4375 14.7543 30.2625 7.47931 37.4437 4.61056C38.55 4.19806 39.6187 4.49806 40.2937 5.19181C41.0062 5.88556 41.3437 6.95431 40.8937 8.04181V8.04181Z" stroke="#2E3092" stroke-width="1.5" stroke-linecap="round" stroke-linejoin="round"/>
<path d="M26.6999 27.7857C26.6999 22.892 22.7249 18.917 17.8312 18.917" stroke="#2E3092" stroke-width="1.5" stroke-linecap="round" stroke-linejoin="round"/>
</g>
<path d="M37.725 24.5272L39.1125 25.8959C41.9062 28.6897 41.9062 31.4459 39.1125 34.2397L33.5625 39.7897C30.8062 42.5459 28.0125 42.5459 25.2562 39.7897M5.83123 20.3628C3.07498 17.569 3.07498 14.8128 5.83123 12.019L11.3812 6.46904C14.1375 3.71279 16.9312 3.71279 19.6875 6.46904L21.075 7.85654" stroke="#2E3092" stroke-width="1.5" stroke-linecap="round"/>
<path opacity="0.4" d="M21.0937 7.88086L14.1562 14.8184M37.725 24.5271L32.175 30.0584" stroke="#2E3092" stroke-width="1.5" stroke-linecap="round"/>
</svg>
