<svg width="45" height="46" viewBox="0 0 45 46" fill="none" xmlns="http://www.w3.org/2000/svg">
<path d="M33.75 36.2902H32.325C30.825 36.2902 29.4 36.8715 28.35 37.9215L25.1437 41.0902C23.6812 42.534 21.3 42.534 19.8375 41.0902L16.6312 37.9215C15.5812 36.8715 14.1375 36.2902 12.6562 36.2902H11.25C8.1375 36.2902 5.625 33.7965 5.625 30.7215V10.2465C5.625 7.17148 8.1375 4.67773 11.25 4.67773H33.75C36.8625 4.67773 39.375 7.17148 39.375 10.2465V30.7027C39.375 33.7777 36.8625 36.2902 33.75 36.2902Z" stroke="#2E3092" stroke-width="1.5" stroke-miterlimit="10" stroke-linecap="round" stroke-linejoin="round"/>
<path opacity="0.4" d="M22.6313 17.709H22.35C21.4025 17.6773 20.5045 17.2779 19.8465 16.5953C19.1884 15.9128 18.8221 15.0008 18.825 14.0527C18.825 12.0277 20.4563 10.3965 22.4813 10.3965C24.5063 10.3965 26.1375 12.0465 26.1375 14.0527C26.1563 16.0402 24.6 17.6527 22.6313 17.709V17.709ZM17.3457 23.3527C14.8519 25.0215 14.8519 27.7402 17.3457 29.409C20.1769 31.3027 24.8269 31.3027 27.6582 29.409C30.1519 27.7402 30.1519 25.0215 27.6582 23.3527C24.8269 21.4777 20.1957 21.4777 17.3457 23.3527Z" stroke="#2E3092" stroke-width="1.5" stroke-linecap="round" stroke-linejoin="round"/>
</svg>
