<svg width="46" height="46" viewBox="0 0 46 46" fill="none" xmlns="http://www.w3.org/2000/svg">
<path d="M35.6722 41.6416H9.42224C3.79724 41.6416 3.79724 39.1104 3.79724 36.0166V34.1416C3.79724 33.1104 4.64099 32.2666 5.67224 32.2666H39.4222C40.4535 32.2666 41.2972 33.1104 41.2972 34.1416V36.0166C41.2972 39.1104 41.2972 41.6416 35.6722 41.6416ZM38.9535 24.7666V32.2666H6.23474V24.7666C6.23524 20.7885 7.81575 16.9735 10.6287 14.1605C13.4416 11.3476 17.2566 9.7671 21.2347 9.7666H23.9535C25.041 9.7666 26.1097 9.8791 27.1222 10.1041C33.891 11.5666 38.9535 17.5666 38.9535 24.7666Z" stroke="#2E3092" stroke-width="1.5" stroke-linecap="round" stroke-linejoin="round"/>
<path opacity="0.34" d="M28.2285 21.0166H16.9785M27.291 8.8291C27.291 9.2791 27.2348 9.6916 27.1223 10.1041C26.1098 9.8791 25.041 9.7666 23.9535 9.7666H21.2348C20.1473 9.7666 19.0973 9.8791 18.0848 10.1041C17.9723 9.6916 17.916 9.2791 17.916 8.8291C17.916 7.5859 18.4099 6.39362 19.289 5.51454C20.168 4.63546 21.3603 4.1416 22.6035 4.1416C23.8467 4.1416 25.039 4.63546 25.9181 5.51454C26.7972 6.39362 27.291 7.5859 27.291 8.8291V8.8291Z" stroke="#2E3092" stroke-width="1.5" stroke-linecap="round" stroke-linejoin="round"/>
</svg>
