<svg width="76" height="78" viewBox="0 0 76 78" fill="none" xmlns="http://www.w3.org/2000/svg">
<ellipse cx="38.3121" cy="38.6148" rx="37.4341" ry="38.5381" fill="#2E3092"/>
<path d="M55.3108 26.4047V46.5177C55.3108 48.1174 53.9849 49.6171 52.353 49.8171L51.7921 49.8837C48.0864 50.367 42.3748 52.2166 39.1111 53.983C38.6691 54.2329 37.9382 54.2329 37.4792 53.983L37.4112 53.9496C34.1475 52.2 28.4529 50.367 24.7642 49.8837L24.2712 49.8171C22.6394 49.6171 21.3135 48.1174 21.3135 46.5177V26.388C21.3135 24.4051 22.9623 22.9053 24.9852 23.072C28.5549 23.3553 33.9605 25.1216 36.9862 26.9713L37.4112 27.2212C37.9042 27.5212 38.7201 27.5212 39.2131 27.2212L39.502 27.0379C40.573 26.388 41.9328 25.7382 43.4117 25.1549C45.6386 24.2884 48.1204 23.5885 50.2112 23.2553C50.6702 23.172 51.1121 23.122 51.5201 23.0886H51.6221C53.6449 22.922 55.3108 24.4051 55.3108 26.4047Z" stroke="white" stroke-width="1.5" stroke-linecap="round" stroke-linejoin="round"/>
<path opacity="0.4" d="M38.3121 27.7645V52.7599M50.2112 23.2537V31.9521L46.8115 29.7358L43.4117 31.9521V25.1533C45.6386 24.2868 48.1204 23.5869 50.2112 23.2537V23.2537Z" stroke="white" stroke-width="1.5" stroke-linecap="round" stroke-linejoin="round"/>
</svg>
