<svg width="96" height="40" viewBox="0 0 96 40" fill="none" xmlns="http://www.w3.org/2000/svg">
<path d="M14.9199 9.8319C12.7096 4.8433 11.7049 4.9886 11.7049 4.9886H10.0471C8.54004 4.9886 0 24.6525 0 24.6525H3.81789L5.6766 19.6639H15.5227L17.3312 24.6525H21.1994C21.2497 24.6525 17.1304 14.8205 14.9199 9.8319ZM6.83203 16.9031C6.83203 16.9031 10.2983 8.52421 10.7504 8.52421C11.2025 8.52421 14.6688 16.9031 14.6688 16.9031H6.83203Z" fill="#2E3092"/>
<path d="M9.39415 3.97151C9.39415 3.97151 10.1979 2.56695 10.851 2.56695C11.504 2.56695 12.5088 3.97151 12.5088 3.97151H16.176C16.176 3.97151 12.1571 0 10.9012 0C9.64533 0 5.62648 3.97151 5.62648 3.97151H9.39415Z" fill="#2E3092"/>
<path d="M40.3393 10.4131C38.2798 10.4131 36.421 11.3333 35.1651 12.7863C33.9595 11.3333 32.1007 10.4131 29.9908 10.4131C26.3236 10.4131 23.3096 13.2706 23.3096 16.8546V24.6039H26.3237V16.8546C26.3237 14.9174 27.9814 13.3191 29.9908 13.3191C32.0003 13.3191 33.6581 14.9174 33.6581 16.8546V24.6039H36.6721V16.8546C36.6721 14.9174 38.3299 13.3191 40.3393 13.3191C42.3488 13.3191 44.0065 14.9174 44.0065 16.8546V24.6039H47.0206V16.8546C47.0206 13.2706 44.0065 10.4131 40.3393 10.4131Z" fill="#2E3092"/>
<path d="M58.0722 10.3647C56.3642 10.3647 54.7566 10.9459 53.5008 11.8661V5.42455C53.5008 4.60119 52.8477 3.97156 51.9936 3.97156C51.1397 3.97156 50.4866 4.60119 50.4866 5.42455V17.9688C50.4866 18.0655 50.4866 18.1624 50.5368 18.2593C50.8382 22.0371 54.1036 24.9914 58.0722 24.9914C62.2417 24.9914 65.6578 21.6981 65.6578 17.6781C65.6578 13.6582 62.2417 10.3647 58.0722 10.3647ZM58.0722 22.0855C55.5604 22.0855 53.5008 20.0997 53.5008 17.6781C53.5008 15.2565 55.5604 13.2707 58.0722 13.2707C60.5839 13.2707 62.6437 15.2565 62.6437 17.6781C62.6437 20.0997 60.5839 22.0855 58.0722 22.0855Z" fill="#2E3092"/>
<path d="M81.8837 16.2251L81.8334 15.6924C81.6827 14.6268 81.3312 13.1738 80.2763 11.963C79.171 10.7038 77.664 10.0257 75.755 9.83197C72.2385 9.54137 70.4803 10.7522 70.2793 10.8975C69.6264 11.3818 69.4757 12.3021 69.9779 12.9317C70.4803 13.5613 71.3845 13.7066 72.0878 13.2223C72.138 13.1738 73.193 12.4958 75.5541 12.6895C77.9151 12.8833 78.6686 14.4331 78.8696 15.6439H73.7958C71.0831 15.6439 68.8728 17.775 68.8728 20.3904C68.8728 23.0057 71.0831 25.1368 73.7958 25.1368H81.8837V17.1938C81.8837 17.0485 81.8837 16.7094 81.8837 16.2251ZM78.8696 22.2793H73.7457C72.6906 22.2793 71.8366 21.4559 71.8366 20.4389C71.8366 19.4217 72.6906 18.5984 73.7457 18.5984H78.8696V22.2793Z" fill="#2E3092"/>
<path d="M94.8948 10.4616C89.62 9.0086 87.3594 11.1881 86.4552 12.6411C85.9528 13.4644 85.6514 14.4815 85.6514 15.547V18.6952V21.1168V25.1852H88.6656V21.0685V18.6467V15.4986C88.6656 14.9658 88.8163 14.4815 89.0171 14.0941C89.821 12.8348 91.4787 12.5442 94.0407 13.2223C94.8445 13.416 95.6984 12.9801 95.8994 12.2052C96.1506 11.4787 95.6984 10.6553 94.8948 10.4616Z" fill="#2E3092"/>
<path d="M1.17333 38.5185C1.10222 38.5185 1.04177 38.4977 0.991994 38.4563C0.949327 38.4078 0.927994 38.3491 0.927994 38.28V31.5081C0.927994 31.4321 0.949327 31.3733 0.991994 31.3318C1.04177 31.2834 1.10222 31.2592 1.17333 31.2592H5.57866C5.64978 31.2592 5.70666 31.2834 5.74933 31.3318C5.79911 31.3733 5.82399 31.4321 5.82399 31.5081V31.9022C5.82399 31.9714 5.80266 32.03 5.75999 32.0785C5.71733 32.12 5.65688 32.1407 5.57866 32.1407H1.95199V34.4118H5.34399C5.41511 34.4118 5.47199 34.436 5.51466 34.4844C5.56444 34.5259 5.58933 34.5847 5.58933 34.6607V35.0444C5.58933 35.1136 5.56444 35.1723 5.51466 35.2207C5.47199 35.2622 5.41511 35.2829 5.34399 35.2829H1.95199V37.637H5.66399C5.74221 37.637 5.80266 37.6577 5.84533 37.6992C5.88799 37.7407 5.90933 37.7995 5.90933 37.8755V38.28C5.90933 38.3491 5.88444 38.4078 5.83466 38.4563C5.79199 38.4977 5.73511 38.5185 5.66399 38.5185H1.17333ZM8.09922 38.5185C8.02811 38.5185 7.96766 38.4977 7.91789 38.4563C7.87522 38.4078 7.85389 38.3491 7.85389 38.28V31.5081C7.85389 31.4321 7.87522 31.3733 7.91789 31.3318C7.96766 31.2834 8.02811 31.2592 8.09922 31.2592H8.58989C8.71789 31.2592 8.80677 31.3077 8.85656 31.4044L12.3979 36.6933V31.5081C12.3979 31.4321 12.4192 31.3733 12.4619 31.3318C12.5117 31.2834 12.5721 31.2592 12.6432 31.2592H13.1552C13.2334 31.2592 13.2939 31.2834 13.3366 31.3318C13.3863 31.3733 13.4112 31.4321 13.4112 31.5081V38.2696C13.4112 38.3388 13.3863 38.3974 13.3366 38.4459C13.2939 38.4943 13.237 38.5185 13.1659 38.5185H12.6539C12.5472 38.5185 12.4619 38.47 12.3979 38.3733L8.86722 33.1363V38.28C8.86722 38.3491 8.84232 38.4078 8.79256 38.4563C8.74277 38.4977 8.68232 38.5185 8.61122 38.5185H8.09922ZM15.973 38.5185C15.9019 38.5185 15.8415 38.4977 15.7917 38.4563C15.749 38.4078 15.7277 38.3491 15.7277 38.28V31.5081C15.7277 31.4321 15.749 31.3733 15.7917 31.3318C15.8415 31.2834 15.9019 31.2592 15.973 31.2592H20.3784C20.4495 31.2592 20.5064 31.2834 20.549 31.3318C20.5988 31.3733 20.6237 31.4321 20.6237 31.5081V31.9022C20.6237 31.9714 20.6024 32.03 20.5597 32.0785C20.517 32.12 20.4565 32.1407 20.3784 32.1407H16.7517V34.4118H20.1437C20.2148 34.4118 20.2717 34.436 20.3144 34.4844C20.3642 34.5259 20.389 34.5847 20.389 34.6607V35.0444C20.389 35.1136 20.3642 35.1723 20.3144 35.2207C20.2717 35.2622 20.2148 35.2829 20.1437 35.2829H16.7517V37.637H20.4637C20.5419 37.637 20.6024 37.6577 20.645 37.6992C20.6877 37.7407 20.709 37.7995 20.709 37.8755V38.28C20.709 38.3491 20.6842 38.4078 20.6344 38.4563C20.5917 38.4977 20.5348 38.5185 20.4637 38.5185H15.973ZM22.8989 38.5185C22.8279 38.5185 22.7674 38.4977 22.7176 38.4563C22.6749 38.4078 22.6536 38.3491 22.6536 38.28V31.5081C22.6536 31.4321 22.6749 31.3733 22.7176 31.3318C22.7674 31.2834 22.8279 31.2592 22.8989 31.2592H25.5016C26.3194 31.2592 26.9594 31.4459 27.4216 31.8192C27.8839 32.1926 28.1149 32.7318 28.1149 33.437C28.1149 33.9625 27.9799 34.3945 27.7096 34.7333C27.4465 35.0721 27.0732 35.3071 26.5896 35.4385L28.2322 38.197C28.2536 38.2385 28.2642 38.2766 28.2642 38.3111C28.2642 38.3663 28.2394 38.4148 28.1896 38.4563C28.1469 38.4977 28.0972 38.5185 28.0402 38.5185H27.5282C27.4216 38.5185 27.3362 38.4943 27.2722 38.4459C27.2154 38.3974 27.1621 38.3284 27.1122 38.2385L25.5656 35.6044H23.6989V38.28C23.6989 38.3491 23.674 38.4078 23.6242 38.4563C23.5745 38.4977 23.514 38.5185 23.4429 38.5185H22.8989ZM25.4589 34.7229C26.5185 34.7229 27.0482 34.2908 27.0482 33.4266C27.0482 32.5625 26.5185 32.1303 25.4589 32.1303H23.6989V34.7229H25.4589ZM32.8099 38.6222C31.8784 38.6222 31.1531 38.3767 30.6339 37.8859C30.1219 37.3881 29.8481 36.7106 29.8126 35.8533C29.8054 35.6459 29.8019 35.321 29.8019 34.8785C29.8019 34.4291 29.8054 34.1041 29.8126 33.9037C29.8481 33.0533 30.1254 32.3826 30.6446 31.8918C31.1637 31.401 31.8854 31.1555 32.8099 31.1555C33.4357 31.1555 33.9654 31.2662 34.3992 31.4874C34.8401 31.7017 35.1707 31.9644 35.3912 32.2755C35.6117 32.5866 35.7291 32.877 35.7432 33.1466V33.1674C35.7432 33.2226 35.7219 33.2677 35.6792 33.3022C35.6366 33.3367 35.5832 33.354 35.5192 33.354H34.8899C34.8187 33.354 34.7654 33.3437 34.7299 33.3229C34.7014 33.2952 34.6731 33.2434 34.6446 33.1674C34.5379 32.8563 34.3317 32.59 34.0259 32.3689C33.7272 32.1477 33.3219 32.037 32.8099 32.037C32.2197 32.037 31.7574 32.1926 31.4232 32.5037C31.0891 32.8148 30.9077 33.2988 30.8792 33.9555C30.8721 34.156 30.8686 34.4637 30.8686 34.8785C30.8686 35.2863 30.8721 35.594 30.8792 35.8014C30.9077 36.4651 31.0891 36.956 31.4232 37.274C31.7574 37.5851 32.2197 37.7407 32.8099 37.7407C33.4072 37.7407 33.8837 37.5817 34.2392 37.2637C34.5947 36.9456 34.7726 36.4686 34.7726 35.8326V35.397H33.1726C33.1014 35.397 33.0411 35.3763 32.9912 35.3348C32.9486 35.2863 32.9272 35.2241 32.9272 35.1481V34.8163C32.9272 34.7471 32.9486 34.6884 32.9912 34.64C33.0411 34.5915 33.1014 34.5674 33.1726 34.5674H35.5832C35.6544 34.5674 35.7112 34.5915 35.7539 34.64C35.8037 34.6814 35.8286 34.7403 35.8286 34.8163V35.8118C35.8286 36.3788 35.7077 36.873 35.4659 37.2948C35.2241 37.7166 34.8757 38.0449 34.4206 38.28C33.9654 38.5081 33.4286 38.6222 32.8099 38.6222ZM38.0527 38.5185C37.9817 38.5185 37.9212 38.4977 37.8714 38.4563C37.8287 38.4078 37.8074 38.3491 37.8074 38.28V31.4977C37.8074 31.4286 37.8287 31.3733 37.8714 31.3318C37.9212 31.2834 37.9817 31.2592 38.0527 31.2592H38.618C38.6892 31.2592 38.746 31.2834 38.7887 31.3318C38.8385 31.3733 38.8634 31.4286 38.8634 31.4977V38.28C38.8634 38.3491 38.8385 38.4078 38.7887 38.4563C38.746 38.4977 38.6892 38.5185 38.618 38.5185H38.0527ZM40.6799 38.5185C40.6231 38.5185 40.5732 38.4977 40.5306 38.4563C40.4879 38.4148 40.4666 38.3663 40.4666 38.3111C40.4666 38.2558 40.4701 38.2177 40.4772 38.197L43.1226 31.4874C43.1794 31.3352 43.2932 31.2592 43.4639 31.2592H44.1893C44.3599 31.2592 44.4737 31.3352 44.5306 31.4874L47.1652 38.197L47.1866 38.3111C47.1866 38.3663 47.1652 38.4148 47.1226 38.4563C47.0799 38.4977 47.0301 38.5185 46.9733 38.5185H46.4292C46.3511 38.5185 46.2906 38.5011 46.2479 38.4666C46.2053 38.4251 46.1768 38.3837 46.1626 38.3422L45.5759 36.8696H42.0772L41.4906 38.3422C41.4764 38.3837 41.4444 38.4251 41.3946 38.4666C41.3519 38.5011 41.2951 38.5185 41.2239 38.5185H40.6799ZM45.2666 35.9777L43.8266 32.2963L42.3866 35.9777H45.2666Z" fill="#2E3092"/>
</svg>
