<svg width="90" height="48" viewBox="0 0 90 48" fill="none" xmlns="http://www.w3.org/2000/svg">
<path d="M89.8767 25.7149C89.8767 37.7882 69.7591 47.5326 44.9137 47.5326C20.1176 47.5326 0 37.7882 0 25.7149C0 13.6722 20.1176 3.92773 44.963 3.92773C69.7591 3.92773 89.8767 13.6722 89.8767 25.7149Z" fill="#2E3092"/>
<path d="M89.0149 24.6115C89.0149 35.8881 69.2913 45.0198 44.963 45.0198C20.6101 44.9891 0.886444 35.8575 0.886444 24.6115C0.886444 13.335 20.6101 4.20337 44.9384 4.20337C69.2913 4.20337 89.0149 13.335 89.0149 24.6115Z" fill="white"/>
<path d="M87.5615 22.926C87.5615 34.3252 68.5765 43.5488 45.1594 43.5488C21.7175 43.5488 2.75726 34.3252 2.75726 22.926C2.75726 11.5269 21.7175 2.27271 45.1594 2.27271C68.552 2.27271 87.5615 11.5269 87.5615 22.926Z" fill="white"/>
<path d="M84.9268 22.6199C84.9268 34.3255 67.0747 43.7636 45.0609 43.7636C23.0473 43.7636 5.17047 34.3255 5.17047 22.6199C5.17047 10.945 23.0473 1.47632 45.0609 1.47632C67.0747 1.47632 84.9268 10.945 84.9268 22.6199Z" fill="#2E3092"/>
<path d="M19.7483 15.235V14.7448H33.9808V15.235H32.7743C31.4199 15.235 30.4104 15.4495 29.8193 15.8479C29.4254 16.093 29.2284 16.7672 29.2284 17.7784V26.2052C29.2284 27.4922 28.9575 28.5647 28.3911 29.3307C27.8249 30.1581 26.8892 30.8629 25.5348 31.4452C24.2051 32.0274 22.58 32.3645 20.6594 32.3645C19.108 32.3645 17.9015 32.1499 17.015 31.7823C16.1285 31.4144 15.6853 30.9549 15.6853 30.434C15.6853 30.0356 15.8823 29.6984 16.2764 29.484C16.818 29.2389 17.4336 29.0856 18.1723 29.0856C18.7141 29.0856 19.1573 29.1776 19.6005 29.3307C20.0438 29.484 20.5362 30.005 21.201 30.7404C21.5704 31.2 22.0629 31.4144 22.6539 31.4144C23.0971 31.4144 23.5157 31.2919 23.8851 31.0162C24.279 30.7403 24.4515 30.2194 24.4515 29.5146V17.809C24.4515 16.9511 24.3528 16.3688 24.1559 16.1237C23.9836 15.9092 23.6634 15.756 23.1218 15.5721C22.4322 15.3576 21.6936 15.2963 20.9056 15.2963H19.7483V15.235Z" fill="white"/>
<path d="M42.7225 23.5696V29.7595C42.7225 30.2192 42.8457 30.5869 43.1658 30.8014C43.4366 31.0466 43.8552 31.1384 44.4216 31.1384C45.2588 31.1384 46.0221 30.9853 46.7115 30.6789C47.4011 30.403 47.9427 29.9434 48.3121 29.3611C48.6815 28.7789 48.8785 28.1661 48.8785 27.4613C48.8785 26.6339 48.6568 25.9291 48.2136 25.2856C47.7458 24.6728 47.1547 24.2131 46.3422 23.9374C45.4803 23.6922 44.3231 23.5696 42.7225 23.5696ZM42.7225 22.6197C44.1753 22.6197 45.2834 22.4971 45.9729 22.2214C46.6623 21.9456 47.2041 21.5472 47.5734 21.057C47.9427 20.5667 48.1397 19.9538 48.1397 19.1571C48.1397 18.3603 47.9674 17.7475 47.5734 17.2573C47.2041 16.7669 46.687 16.3992 45.9729 16.1541C45.2834 15.9089 44.1753 15.7863 42.6979 15.7863V22.6197H42.7225ZM48.3859 22.9568C50.3559 23.3245 51.7348 23.8147 52.5474 24.3664C53.6801 25.163 54.271 26.1437 54.271 27.3694C54.271 28.687 53.6309 29.7595 52.375 30.5869C50.8238 31.6288 48.5583 32.119 45.6035 32.119H34.966V31.6594C35.951 31.6594 36.6159 31.5675 36.9606 31.4142C37.3299 31.261 37.5515 31.0771 37.6993 30.832C37.8224 30.5869 37.8963 30.0046 37.8963 29.0547V17.8701C37.8963 16.9202 37.8224 16.3379 37.6993 16.0928C37.5762 15.8476 37.3053 15.6331 36.9606 15.5106C36.5912 15.3574 35.9263 15.2961 34.966 15.2961V14.8364H44.9879C47.3764 14.8364 49.0755 14.9896 50.0604 15.388C51.0453 15.7863 51.8579 16.2461 52.4242 16.9507C52.9906 17.6555 53.286 18.391 53.286 19.1877C53.286 20.015 52.9168 20.7506 52.2027 21.4246C51.4886 22.0374 50.2082 22.5584 48.3859 22.9568Z" fill="white"/>
<path d="M66.2629 31.7514C68.6268 31.0466 69.858 29.6065 69.858 27.8292C69.858 25.3471 67.6665 23.9069 64.3176 22.865C61.0426 21.7925 58.8511 20.6281 58.8758 18.6362C58.8511 16.2769 61.5352 14.6833 66.1399 14.6833C69.2917 14.6833 70.7198 15.1736 70.8922 15.5413C71.0645 16.0929 71.1877 17.2881 71.1877 18.0541C71.1877 18.2685 70.4244 18.2685 70.3504 18.0541C69.7595 16.2769 68.75 15.2349 65.9674 15.2349C63.1357 15.2349 61.2151 16.3381 61.2151 18.2073C61.2151 20.0153 62.9141 21.057 65.8936 22.0069C69.5379 23.1714 72.2712 24.6423 72.2712 27.3389C72.2712 30.0354 69.6364 31.5676 66.7308 31.874C66.5091 31.9353 66.1399 31.8127 66.2629 31.7514ZM60.8211 31.9965C57.7431 31.9965 55.8471 31.445 55.6993 30.9548C55.5762 30.4644 55.33 29.3001 55.33 28.3501C55.33 28.1356 56.118 28.1356 56.1672 28.3501C56.7089 30.2193 58.1617 31.3225 61.0181 31.3225C64.2684 31.3225 66.3614 30.25 66.3614 28.1356C66.3614 26.1437 64.6132 24.9181 61.2397 23.8762C57.4969 22.6505 55.33 20.9957 55.33 18.9733C55.33 16.522 57.9648 15.0511 60.1563 14.714C60.3532 14.6834 60.7964 14.8059 60.5502 14.8672C58.4819 15.3575 56.8074 16.7671 56.8074 18.7589C56.8074 20.7813 58.5557 22.3135 61.9784 23.4778C65.5981 24.6423 67.7896 25.8681 67.7896 28.0743C67.7896 30.4031 65.2041 31.9047 60.9196 31.9047H60.8211V31.9965Z" fill="white"/>
</svg>
