<svg width="106" height="34" viewBox="0 0 106 34" fill="none" xmlns="http://www.w3.org/2000/svg">
<path d="M22.7089 26.6868H27.5882V13.1815H22.7089V26.6868ZM29.2707 3.9916H25.9898V7.1082H29.2707V3.9916ZM10.8473 5.50995H6.13624V9.42568H10.5108C13.2869 9.42568 14.8853 10.7043 14.8853 13.1016C14.8853 15.499 13.2869 16.8576 10.5108 16.8576H6.13624V9.50559H1.25699V26.6868H6.13624V20.7733H10.7631C16.3996 20.7733 19.6804 17.8964 19.6804 12.9418C19.6804 8.30689 16.4837 5.50995 10.8473 5.50995ZM32.5515 0.875H22.7089V10.2248H32.5515V0.875ZM30.9531 8.62654H24.3914V2.39334H30.9531V8.62654ZM59.5558 5.50995H55.0972V9.42568H59.3033C62.0795 9.42568 63.6779 10.7043 63.6779 13.1016C63.6779 15.499 62.0795 16.8576 59.3033 16.8576H55.0972V9.50559H50.2179V26.6868H55.0972V20.7733H59.5558C65.1921 20.7733 68.473 17.8964 68.473 12.9418C68.473 8.30689 65.1921 5.50995 59.5558 5.50995ZM100.525 10.4645L96.3185 20.5335L92.1122 10.4645H87.0647L93.7947 26.6868L91.1869 32.8401H96.3185L105.572 10.4645H100.525ZM78.6522 10.3846C75.7078 10.3846 73.4364 11.0239 70.9126 12.2226L72.4269 15.4191C74.1935 14.4602 75.9602 13.9807 77.5586 13.9807C79.914 13.9807 81.0918 14.9397 81.0918 16.6978V17.0174H76.3807C72.1745 17.0174 69.9032 18.8553 69.9032 21.8921C69.9032 24.8489 72.0903 26.9265 75.7919 26.9265C78.1473 26.9265 79.8299 26.1274 81.1759 24.769V26.527H85.9711V15.9785C85.8027 12.5423 83.1949 10.3846 78.6522 10.3846ZM81.5124 21.2527C81.0077 22.6113 79.5775 23.73 77.5586 23.73C75.8761 23.73 74.8666 22.9309 74.8666 21.6524C74.8666 20.3737 75.7919 19.8144 77.6427 19.8144H81.5124V21.2527ZM40.0387 23.1707C37.6832 23.1707 36.0006 21.4125 36.0006 18.7754C36.0006 16.2182 37.6832 14.4602 40.0387 14.4602C41.7212 14.4602 42.983 15.0995 43.9085 16.2182L47.1893 13.9807C45.6751 11.8231 43.0673 10.5444 39.7864 10.5444C34.6547 10.4645 31.1215 13.8209 31.1215 18.7754C31.1215 23.73 34.6547 27.0064 39.7864 27.0064C43.3196 27.0064 45.9275 25.648 47.3576 23.4104L43.9926 21.2527C43.1514 22.5314 41.8053 23.1707 40.0387 23.1707Z" fill="#2E3092"/>
</svg>
