<svg width="49" height="49" viewBox="0 0 49 49" fill="none" xmlns="http://www.w3.org/2000/svg">
<path d="M44.1753 34.481V10.341C44.1753 7.94099 42.2141 6.16099 39.8326 6.36099H39.7125C35.5099 6.72099 29.126 8.86099 25.5638 11.101L25.2236 11.321C24.6432 11.681 23.6826 11.681 23.1022 11.321L22.6019 11.021C19.0397 8.80099 12.6758 6.68099 8.47319 6.34099C6.09171 6.14099 4.15051 7.94099 4.15051 10.321V34.481C4.15051 36.401 5.71148 38.201 7.63267 38.441L8.21303 38.521C12.5557 39.101 19.2599 41.301 23.1022 43.401L23.1823 43.441C23.7226 43.741 24.5832 43.741 25.1035 43.441C28.9459 41.321 35.67 39.101 40.0327 38.521L40.6931 38.441C42.6143 38.201 44.1753 36.401 44.1753 34.481V34.481Z" stroke="white" stroke-width="1.5" stroke-linecap="round" stroke-linejoin="round"/>
<path opacity="0.4" d="M24.1629 11.973V41.973M15.6576 17.973H11.1548M17.1586 23.973H11.1548" stroke="white" stroke-width="1.5" stroke-linecap="round" stroke-linejoin="round"/>
</svg>
