<svg width="40" height="34" viewBox="0 0 40 34" fill="none" xmlns="http://www.w3.org/2000/svg">
<path d="M39.5 16.7167C39.5 18.2375 39.344 19.4667 37.5468 19.4667H23.25V31.564C23.25 33.082 21.7973 33.2167 20 33.2167C18.2028 33.2167 16.75 33.082 16.75 31.564V19.4667H2.45328C0.65928 19.4667 0.500031 18.2375 0.500031 16.7167C0.500031 15.196 0.65928 13.9667 2.45328 13.9667H16.75V1.86949C16.75 0.348735 18.2028 0.216736 20 0.216736C21.7973 0.216736 23.25 0.348735 23.25 1.86949V13.9667H37.5468C39.344 13.9667 39.5 15.196 39.5 16.7167Z" fill="url(#paint0_linear_846_7527)"/>
<defs>
<linearGradient id="paint0_linear_846_7527" x1="20" y1="0.216736" x2="20" y2="33.2167" gradientUnits="userSpaceOnUse">
<stop stop-color="#000122"/>
<stop offset="0.0001" stop-color="#191A4B"/>
<stop offset="1" stop-color="#4446B6"/>
</linearGradient>
</defs>
</svg>
