<svg width="27" height="24" viewBox="0 0 27 24" fill="none" xmlns="http://www.w3.org/2000/svg">
<path d="M21.0942 4.11572H5.73267C4.85964 4.11572 4.02237 4.41854 3.40505 4.95757C2.78773 5.49659 2.44092 6.22767 2.44092 6.98996V16.5708C2.44092 17.333 2.78773 18.0641 3.40505 18.6031C4.02237 19.1422 4.85964 19.445 5.73267 19.445H21.0942C21.9672 19.445 22.8045 19.1422 23.4218 18.6031C24.0391 18.0641 24.3859 17.333 24.3859 16.5708V6.98996C24.3859 6.22767 24.0391 5.49659 23.4218 4.95757C22.8045 4.41854 21.9672 4.11572 21.0942 4.11572ZM20.359 6.03188L13.4134 10.5828L6.46783 6.03188H20.359ZM21.0942 17.5288H5.73267C5.44166 17.5288 5.16257 17.4279 4.9568 17.2482C4.75102 17.0685 4.63542 16.8249 4.63542 16.5708V7.22948L12.7551 12.5468C12.945 12.6712 13.176 12.7384 13.4134 12.7384C13.6508 12.7384 13.8818 12.6712 14.0718 12.5468L22.1914 7.22948V16.5708C22.1914 16.8249 22.0758 17.0685 21.87 17.2482C21.6643 17.4279 21.3852 17.5288 21.0942 17.5288Z" fill="#231F20"/>
</svg>
