<svg width="27" height="24" viewBox="0 0 27 24" fill="none" xmlns="http://www.w3.org/2000/svg">
<path d="M19.3386 21.6151C14.8588 21.61 10.5642 20.0539 7.39654 17.288C4.22887 14.5221 2.44672 10.7722 2.44092 6.86064C2.44092 5.69179 2.97269 4.57081 3.91925 3.74431C4.86582 2.9178 6.14963 2.45348 7.48827 2.45348C7.77173 2.45159 8.05472 2.47406 8.33315 2.52054C8.60232 2.55532 8.86693 2.61308 9.12317 2.693C9.30339 2.74821 9.46399 2.84354 9.58908 2.96957C9.71416 3.09559 9.79941 3.24795 9.83639 3.41156L11.3396 9.16003C11.3801 9.31607 11.3753 9.47848 11.3254 9.63245C11.2756 9.78641 11.1824 9.92703 11.0543 10.0415C10.9117 10.1756 10.9007 10.1852 9.5511 10.7984C10.6319 12.8686 12.5282 14.5312 14.8947 15.4834C15.6079 14.2953 15.6189 14.2858 15.7725 14.1612C15.9036 14.0494 16.0646 13.968 16.2409 13.9245C16.4173 13.881 16.6033 13.8767 16.782 13.9121L23.3655 15.2247C23.5469 15.2614 23.7145 15.3379 23.8528 15.4468C23.991 15.5558 24.0952 15.6936 24.1555 15.8474C24.2481 16.0748 24.3179 16.3089 24.364 16.5468C24.4081 16.7876 24.4302 17.0311 24.4298 17.275C24.4096 18.4388 23.8629 19.5484 22.909 20.3616C21.9551 21.1747 20.6716 21.6253 19.3386 21.6151ZM7.48827 4.36964C6.73254 4.37216 6.00858 4.63542 5.47419 5.10202C4.9398 5.56863 4.63831 6.20076 4.63542 6.86064C4.63832 10.2648 6.18834 13.5288 8.94508 15.9359C11.7018 18.343 15.4399 19.6964 19.3386 19.6989C20.0943 19.6964 20.8183 19.4331 21.3526 18.9665C21.887 18.4999 22.1885 17.8678 22.1914 17.2079C22.1914 17.1025 22.1914 16.9971 22.1914 16.8917L17.1002 15.8666L16.782 16.3935C16.2882 17.2271 15.9261 17.8307 15.0044 17.5049C13.1862 16.9366 11.5357 16.0218 10.173 14.827C8.81021 13.6321 7.76941 12.1872 7.12618 10.5972C6.73117 9.84985 7.4773 9.50494 8.42093 9.07381L9.02442 8.81513L7.85036 4.36964H7.48827Z" fill="#231F20"/>
</svg>
