<svg width="53" height="53" viewBox="0 0 53 53" fill="none" xmlns="http://www.w3.org/2000/svg">
<g clip-path="url(#clip0_1260_7519)">
<path opacity="0.4" d="M26.3499 30.3347C27.4999 30.3347 28.6027 29.8781 29.4159 29.0655C30.2291 28.2528 30.6859 27.1506 30.6859 26.0014C30.6859 24.8521 30.2291 23.7499 29.4159 22.9372C28.6027 22.1246 27.4999 21.668 26.3499 21.668C25.1999 21.668 24.097 22.1246 23.2838 22.9372C22.4707 23.7499 22.0139 24.8521 22.0139 26.0014C22.0139 27.1506 22.4707 28.2528 23.2838 29.0655C24.097 29.8781 25.1999 30.3347 26.3499 30.3347Z" stroke="white" stroke-width="1.5" stroke-linecap="round" stroke-linejoin="round"/>
<path d="M43.6939 39.0013C46.4256 35.383 48.03 30.8763 48.03 26.0013C48.03 21.1263 46.4256 16.6197 43.6939 13.0013M9.00582 13.0013C6.27413 16.6197 4.6698 21.1263 4.6698 26.0013C4.6698 30.8763 6.27413 35.383 9.00582 39.0013" stroke="white" stroke-width="1.5" stroke-linecap="round" stroke-linejoin="round"/>
<path opacity="0.4" d="M36.7563 33.797C38.3823 31.6304 39.3579 28.922 39.3579 25.997C39.3579 23.072 38.3823 20.3637 36.7563 18.197M15.9434 18.197C14.3174 20.3637 13.3418 23.072 13.3418 25.997C13.3418 28.922 14.3174 31.6304 15.9434 33.797" stroke="white" stroke-width="1.5" stroke-linecap="round" stroke-linejoin="round"/>
</g>
<defs>
<clipPath id="clip0_1260_7519">
<rect x="0.333771" y="0.00256348" width="52.0322" height="52" rx="8" fill="white"/>
</clipPath>
</defs>
</svg>
